<svg xmlns="http://www.w3.org/2000/svg" xmlns:xlink="http://www.w3.org/1999/xlink" width="31.88" zoomAndPan="magnify" viewBox="0 0 375 374.999991" height="32" preserveAspectRatio="xMidYMid meet" version="1.0"><defs><g/><clipPath id="f516a6b0be"><path d="M 30.363281 30.480469 L 344.636719 30.480469 L 344.636719 344.757812 L 30.363281 344.757812 Z M 30.363281 30.480469 " clip-rule="nonzero"/></clipPath></defs><g fill="#ffffff" fill-opacity="1"><g transform="translate(147.042842, 266.488675)"><g><path d="M 73.125 0 L 65.9375 -23.578125 L 29.8125 -23.578125 L 22.640625 0 L 0 0 L 34.96875 -99.484375 L 60.65625 -99.484375 L 95.75 0 Z M 60.921875 -41.203125 C 54.273438 -62.566406 50.535156 -74.648438 49.703125 -77.453125 C 48.867188 -80.253906 48.269531 -82.46875 47.90625 -84.09375 C 46.414062 -78.3125 42.148438 -64.015625 35.109375 -41.203125 Z M 60.921875 -41.203125 "/></g></g></g><g clip-path="url(#f516a6b0be)"><path fill="#000000" d="M 108.96875 30.441406 C 65.578125 30.441406 30.398438 65.621094 30.398438 109.011719 L 30.398438 266.148438 C 30.398438 309.539062 65.578125 344.71875 108.96875 344.71875 L 266.109375 344.71875 C 309.496094 344.71875 344.675781 309.539062 344.675781 266.148438 L 344.675781 109.011719 C 344.675781 65.621094 309.496094 30.441406 266.109375 30.441406 Z M 108.96875 30.441406 " fill-opacity="1" fill-rule="nonzero"/></g><g fill="#ffffff" fill-opacity="1"><g transform="translate(70.910457, 308.11372)"><g><path d="M 216.5 -101.359375 C 216.5 -99.648438 216.445312 -97.992188 216.34375 -96.390625 C 216.238281 -94.785156 216.078125 -93.125 215.859375 -91.40625 C 214.796875 -82.644531 212.660156 -74.203125 209.453125 -66.078125 C 206.242188 -57.953125 202.125 -50.359375 197.09375 -43.296875 C 192.070312 -36.242188 186.191406 -29.882812 179.453125 -24.21875 C 172.722656 -18.550781 165.398438 -13.789062 157.484375 -9.9375 C 141.023438 -2.238281 123.707031 0.96875 105.53125 -0.3125 C 87.351562 -1.601562 70.671875 -7.378906 55.484375 -17.640625 C 40.941406 -27.472656 29.660156 -40.25 21.640625 -55.96875 C 13.628906 -71.6875 9.835938 -88.3125 10.265625 -105.84375 C 10.691406 -116.75 12.722656 -127.332031 16.359375 -137.59375 C 19.992188 -147.863281 25.125 -157.382812 31.75 -166.15625 C 40.09375 -177.050781 50.25 -185.867188 62.21875 -192.609375 C 74.195312 -199.347656 86.921875 -203.570312 100.390625 -205.28125 C 113.867188 -206.988281 127.234375 -206.023438 140.484375 -202.390625 C 153.742188 -198.753906 165.71875 -192.769531 176.40625 -184.4375 L 176.734375 -184.4375 L 176.734375 -237.359375 C 176.734375 -242.910156 178.65625 -247.609375 182.5 -251.453125 C 186.351562 -255.304688 191.0625 -257.234375 196.625 -257.234375 C 202.175781 -257.234375 206.875 -255.304688 210.71875 -251.453125 C 214.570312 -247.609375 216.5 -242.910156 216.5 -237.359375 Z M 161.015625 -61.265625 C 168.503906 -70.023438 173.367188 -80.019531 175.609375 -91.25 C 177.859375 -102.476562 177.054688 -113.546875 173.203125 -124.453125 C 170.210938 -132.785156 165.671875 -140.160156 159.578125 -146.578125 C 153.484375 -152.992188 146.476562 -157.914062 138.5625 -161.34375 C 130.4375 -164.976562 121.9375 -166.796875 113.0625 -166.796875 C 104.1875 -166.796875 95.796875 -164.976562 87.890625 -161.34375 C 84.460938 -159.625 81.195312 -157.800781 78.09375 -155.875 C 75 -153.957031 72.0625 -151.71875 69.28125 -149.15625 C 63.71875 -143.59375 59.222656 -137.226562 55.796875 -130.0625 C 52.378906 -122.894531 50.457031 -115.25 50.03125 -107.125 C 49.601562 -100.070312 50.296875 -93.070312 52.109375 -86.125 C 53.929688 -79.175781 56.984375 -72.8125 61.265625 -67.03125 C 65.535156 -60.832031 70.71875 -55.539062 76.8125 -51.15625 C 82.914062 -46.769531 89.492188 -43.617188 96.546875 -41.703125 C 103.390625 -39.984375 110.445312 -39.335938 117.71875 -39.765625 C 124.988281 -40.203125 131.9375 -41.914062 138.5625 -44.90625 C 136.851562 -44.050781 135.140625 -43.25 133.421875 -42.5 C 131.710938 -41.75 129.898438 -41.054688 127.984375 -40.421875 C 132.046875 -41.910156 136.210938 -43.617188 140.484375 -45.546875 C 148.609375 -49.609375 155.453125 -54.847656 161.015625 -61.265625 Z M 161.015625 -61.265625 "/></g></g></g></svg>