<svg xmlns="http://www.w3.org/2000/svg" xmlns:xlink="http://www.w3.org/1999/xlink" width="1920" zoomAndPan="magnify" viewBox="0 0 1440 809.999993" height="1080" preserveAspectRatio="xMidYMid meet" version="1.0"><defs><clipPath id="6c39fa75c8"><path d="M 167.363281 120.382812 L 211.613281 120.382812 L 211.613281 158.632812 L 167.363281 158.632812 Z M 167.363281 120.382812 " clip-rule="nonzero"/></clipPath><clipPath id="807b5af2f0"><path d="M 824 128 L 900 128 L 900 201 L 824 201 Z M 824 128 " clip-rule="nonzero"/></clipPath><clipPath id="b1056fd671"><path d="M 848.253906 120.382812 L 906.949219 188.609375 L 847.820312 239.480469 L 789.125 171.253906 Z M 848.253906 120.382812 " clip-rule="nonzero"/></clipPath><clipPath id="d2cf5de893"><path d="M 848.253906 120.382812 L 906.949219 188.609375 L 847.820312 239.480469 L 789.125 171.253906 Z M 848.253906 120.382812 " clip-rule="nonzero"/></clipPath><clipPath id="e3aaf8d6a0"><path d="M 848.253906 120.382812 L 906.949219 188.609375 L 847.820312 239.480469 L 789.125 171.253906 Z M 848.253906 120.382812 " clip-rule="nonzero"/></clipPath><clipPath id="49702395ef"><path d="M 818 120 L 907 120 L 907 206 L 818 206 Z M 818 120 " clip-rule="nonzero"/></clipPath><clipPath id="a7b5ac0084"><path d="M 848.253906 120.382812 L 906.949219 188.609375 L 847.820312 239.480469 L 789.125 171.253906 Z M 848.253906 120.382812 " clip-rule="nonzero"/></clipPath><clipPath id="894ae04c22"><path d="M 848.253906 120.382812 L 906.949219 188.609375 L 847.820312 239.480469 L 789.125 171.253906 Z M 848.253906 120.382812 " clip-rule="nonzero"/></clipPath><clipPath id="1489355d4e"><path d="M 848.253906 120.382812 L 906.949219 188.609375 L 847.820312 239.480469 L 789.125 171.253906 Z M 848.253906 120.382812 " clip-rule="nonzero"/></clipPath><clipPath id="26ae2ea3b6"><path d="M 551 616 L 619 616 L 619 693 L 551 693 Z M 551 616 " clip-rule="nonzero"/></clipPath><clipPath id="a6c5143e05"><path d="M 551.226562 609.664062 L 626.589844 657.476562 L 585.207031 722.707031 L 509.84375 674.894531 Z M 551.226562 609.664062 " clip-rule="nonzero"/></clipPath><clipPath id="81e61c63dd"><path d="M 551.226562 609.664062 L 626.589844 657.476562 L 585.207031 722.707031 L 509.84375 674.894531 Z M 551.226562 609.664062 " clip-rule="nonzero"/></clipPath><clipPath id="20caa253e8"><path d="M 551.226562 609.664062 L 626.589844 657.476562 L 585.207031 722.707031 L 509.84375 674.894531 Z M 551.226562 609.664062 " clip-rule="nonzero"/></clipPath><clipPath id="53f1d66ea1"><path d="M 547 609 L 627 609 L 627 699 L 547 699 Z M 547 609 " clip-rule="nonzero"/></clipPath><clipPath id="6cb759a087"><path d="M 551.226562 609.664062 L 626.589844 657.476562 L 585.207031 722.707031 L 509.84375 674.894531 Z M 551.226562 609.664062 " clip-rule="nonzero"/></clipPath><clipPath id="6d58a5fc0c"><path d="M 551.226562 609.664062 L 626.589844 657.476562 L 585.207031 722.707031 L 509.84375 674.894531 Z M 551.226562 609.664062 " clip-rule="nonzero"/></clipPath><clipPath id="3b77eed1e0"><path d="M 551.226562 609.664062 L 626.589844 657.476562 L 585.207031 722.707031 L 509.84375 674.894531 Z M 551.226562 609.664062 " clip-rule="nonzero"/></clipPath><clipPath id="c6b6a9a26a"><path d="M 1146 648 L 1191 648 L 1191 693 L 1146 693 Z M 1146 648 " clip-rule="nonzero"/></clipPath><clipPath id="4cff313a36"><path d="M 1180.429688 643.964844 L 1193.296875 695.636719 L 1148.902344 706.691406 L 1136.035156 655.019531 Z M 1180.429688 643.964844 " clip-rule="nonzero"/></clipPath><clipPath id="06d85ea5e3"><path d="M 1180.429688 643.964844 L 1193.296875 695.636719 L 1148.902344 706.691406 L 1136.035156 655.019531 Z M 1180.429688 643.964844 " clip-rule="nonzero"/></clipPath><clipPath id="923701108c"><path d="M 1180.429688 643.964844 L 1193.296875 695.636719 L 1148.902344 706.691406 L 1136.035156 655.019531 Z M 1180.429688 643.964844 " clip-rule="nonzero"/></clipPath><clipPath id="680e3fb27d"><path d="M 1142 643 L 1194 643 L 1194 696 L 1142 696 Z M 1142 643 " clip-rule="nonzero"/></clipPath><clipPath id="a8c2ccbb8a"><path d="M 1180.429688 643.964844 L 1193.296875 695.636719 L 1148.902344 706.691406 L 1136.035156 655.019531 Z M 1180.429688 643.964844 " clip-rule="nonzero"/></clipPath><clipPath id="7f478b24eb"><path d="M 1180.429688 643.964844 L 1193.296875 695.636719 L 1148.902344 706.691406 L 1136.035156 655.019531 Z M 1180.429688 643.964844 " clip-rule="nonzero"/></clipPath><clipPath id="b51af72c4d"><path d="M 1180.429688 643.964844 L 1193.296875 695.636719 L 1148.902344 706.691406 L 1136.035156 655.019531 Z M 1180.429688 643.964844 " clip-rule="nonzero"/></clipPath><clipPath id="f8d43eee3c"><path d="M 413 97 L 642.75 97 L 642.75 326.25 L 413 326.25 Z M 413 97 " clip-rule="nonzero"/></clipPath><clipPath id="32d507abc9"><path d="M 377.320312 149 L 442 149 L 442 232 L 377.320312 232 Z M 377.320312 149 " clip-rule="nonzero"/></clipPath><clipPath id="4617889a68"><path d="M 848.203125 614 L 941 614 L 941 707.027344 L 848.203125 707.027344 Z M 848.203125 614 " clip-rule="nonzero"/></clipPath><clipPath id="b06c8a8b87"><path d="M 893 608.027344 L 920 608.027344 L 920 642 L 893 642 Z M 893 608.027344 " clip-rule="nonzero"/></clipPath><clipPath id="cbab7a3b8c"><path d="M 894 608.027344 L 924 608.027344 L 924 646 L 894 646 Z M 894 608.027344 " clip-rule="nonzero"/></clipPath><clipPath id="a1e1556bdd"><path d="M 895 608.027344 L 928 608.027344 L 928 650 L 895 650 Z M 895 608.027344 " clip-rule="nonzero"/></clipPath><clipPath id="56b585958d"><path d="M 896 608.027344 L 932 608.027344 L 932 653 L 896 653 Z M 896 608.027344 " clip-rule="nonzero"/></clipPath><clipPath id="1cb66b9164"><path d="M 924 631 L 954.703125 631 L 954.703125 670 L 924 670 Z M 924 631 " clip-rule="nonzero"/></clipPath><clipPath id="09feeb11be"><path d="M 928 635 L 954.703125 635 L 954.703125 669 L 928 669 Z M 928 635 " clip-rule="nonzero"/></clipPath><clipPath id="64ec4cb935"><path d="M 933 641 L 954.703125 641 L 954.703125 668 L 933 668 Z M 933 641 " clip-rule="nonzero"/></clipPath><clipPath id="287d15c633"><path d="M 0 0 L 96 0 L 96 155.886719 L 0 155.886719 Z M 0 0 " clip-rule="nonzero"/></clipPath><clipPath id="c1a8c63053"><path d="M 0 0 L 110 0 L 110 155.886719 L 0 155.886719 Z M 0 0 " clip-rule="nonzero"/></clipPath><clipPath id="3464ac4677"><path d="M 110 0 L 149.644531 0 L 149.644531 100 L 110 100 Z M 110 0 " clip-rule="nonzero"/></clipPath><clipPath id="07aa6e1ddd"><path d="M 642.753906 377 L 664 377 L 664 429 L 642.753906 429 Z M 642.753906 377 " clip-rule="nonzero"/></clipPath><clipPath id="eb4cf58adf"><path d="M 663 348.785156 L 723 348.785156 L 723 491 L 663 491 Z M 663 348.785156 " clip-rule="nonzero"/></clipPath><clipPath id="37b228f64d"><path d="M 670 348.785156 L 733 348.785156 L 733 498 L 670 498 Z M 670 348.785156 " clip-rule="nonzero"/></clipPath><clipPath id="f496c17171"><path d="M 720 367 L 783 367 L 783 516.035156 L 720 516.035156 Z M 720 367 " clip-rule="nonzero"/></clipPath><clipPath id="52691a1916"><path d="M 789 435 L 810.003906 435 L 810.003906 488 L 789 488 Z M 789 435 " clip-rule="nonzero"/></clipPath><clipPath id="690e6a644d"><path d="M 1274.347656 648 L 1440 648 L 1440 810 L 1274.347656 810 Z M 1274.347656 648 " clip-rule="nonzero"/></clipPath></defs><path fill="#fcce54" d="M 431.15625 730.296875 C 422.191406 721.328125 407.640625 721.328125 398.679688 730.292969 L 309.34375 819.613281 L 343.855469 785.109375 C 334.886719 794.078125 320.335938 794.078125 311.375 785.109375 C 302.402344 776.140625 302.402344 761.59375 311.375 752.628906 L 276.855469 787.136719 L 329.644531 734.363281 C 338.613281 725.386719 338.613281 710.847656 329.644531 701.875 C 320.671875 692.90625 306.128906 692.90625 297.15625 701.875 L 249.445312 749.585938 C 240.476562 758.550781 225.9375 758.550781 216.96875 749.582031 C 208 740.613281 208 726.070312 216.96875 717.101562 L 222.039062 712.023438 L 343.855469 590.230469 C 352.828125 581.261719 352.828125 566.714844 343.863281 557.746094 C 334.886719 548.777344 320.335938 548.777344 311.375 557.746094 L -60.160156 929.230469 C -69.132812 938.203125 -69.132812 952.75 -60.160156 961.71875 C -51.191406 970.679688 -36.648438 970.679688 -27.679688 961.71875 L 65.710938 868.332031 C 74.683594 859.363281 89.226562 859.363281 98.195312 868.339844 C 107.164062 877.300781 107.164062 891.847656 98.195312 900.8125 L 45.40625 953.589844 C 36.4375 962.566406 36.4375 977.105469 45.414062 986.074219 C 54.378906 995.039062 68.925781 995.042969 77.890625 986.074219 L 111.398438 952.570312 C 120.371094 943.613281 134.910156 943.613281 143.875 952.578125 C 152.847656 961.546875 152.847656 976.085938 143.875 985.0625 L 304.265625 824.691406 L 110.378906 1018.554688 C 101.402344 1027.523438 101.410156 1042.070312 110.378906 1051.03125 C 119.34375 1060 133.890625 1060 142.863281 1051.03125 L 431.15625 762.777344 C 440.132812 753.808594 440.132812 739.265625 431.15625 730.296875 " fill-opacity="1" fill-rule="nonzero"/><path fill="#b2e5d6" d="M -110.542969 949.503906 C -101.570312 958.472656 -101.570312 973.011719 -110.542969 981.980469 L 40.714844 830.753906 C 31.746094 839.722656 17.195312 839.722656 8.230469 830.753906 C -0.738281 821.785156 -0.738281 807.238281 8.230469 798.273438 L -120.691406 927.171875 L 13.304688 793.195312 L 135.121094 671.402344 C 144.089844 662.425781 144.089844 647.886719 135.121094 638.917969 C 126.148438 629.949219 111.601562 629.949219 102.636719 638.917969 L -19.179688 760.710938 L -37.449219 778.984375 L -268.898438 1010.402344 C -277.867188 1019.371094 -277.867188 1033.914062 -268.898438 1042.882812 C -259.929688 1051.851562 -245.386719 1051.851562 -236.414062 1042.882812 L -143.023438 949.503906 C -134.046875 940.535156 -119.511719 940.535156 -110.542969 949.503906 " fill-opacity="1" fill-rule="nonzero"/><path fill="#b2e5d6" d="M 358.449219 805.371094 C 349.476562 796.410156 334.933594 796.402344 325.960938 805.371094 L 222.933594 908.398438 C 213.957031 917.367188 199.417969 917.367188 190.441406 908.398438 C 181.472656 899.429688 181.472656 884.890625 190.441406 875.921875 L 222.417969 843.949219 C 231.390625 834.980469 231.390625 820.433594 222.417969 811.464844 C 213.453125 802.5 198.90625 802.5 189.9375 811.464844 L 100.609375 900.785156 L 135.121094 866.273438 C 126.148438 875.242188 111.605469 875.242188 102.636719 866.273438 C 93.667969 857.308594 93.667969 842.761719 102.636719 833.792969 L 68.121094 868.308594 L 120.90625 815.527344 C 129.878906 806.558594 129.878906 792.011719 120.90625 783.046875 C 111.941406 774.074219 97.394531 774.074219 88.425781 783.046875 L -163.328125 1034.761719 C -172.292969 1043.730469 -172.292969 1058.277344 -163.324219 1067.242188 C -154.359375 1076.210938 -139.8125 1076.210938 -130.839844 1067.242188 L 63.042969 873.378906 L -97.34375 1033.75 C -88.375 1024.78125 -73.832031 1024.78125 -64.859375 1033.75 C -55.882812 1042.71875 -55.882812 1057.257812 -64.859375 1066.226562 L 95.53125 905.855469 L -98.359375 1099.726562 C -107.328125 1108.6875 -107.328125 1123.234375 -98.359375 1132.203125 C -89.386719 1141.171875 -74.84375 1141.171875 -65.875 1132.203125 L 39.191406 1027.152344 C 48.164062 1018.179688 62.707031 1018.179688 71.675781 1027.152344 C 80.640625 1036.121094 80.640625 1050.660156 71.675781 1059.628906 L 74.210938 1057.09375 C 65.242188 1066.0625 65.242188 1080.601562 74.210938 1089.570312 C 83.179688 1098.539062 97.730469 1098.539062 106.695312 1089.578125 L 358.449219 837.859375 C 367.410156 828.882812 367.410156 814.34375 358.449219 805.371094 " fill-opacity="1" fill-rule="nonzero"/><path fill="#e362a2" d="M 396.550781 439.953125 C 387.589844 430.992188 373.039062 430.992188 364.074219 439.953125 L 274.742188 529.277344 L 309.253906 494.761719 C 300.285156 503.730469 285.734375 503.730469 276.769531 494.761719 C 267.800781 485.800781 267.800781 471.253906 276.769531 462.285156 L 242.253906 496.796875 L 295.039062 444.015625 C 304.011719 435.046875 304.011719 420.5 295.039062 411.539062 C 286.070312 402.5625 271.527344 402.5625 262.550781 411.539062 L 214.84375 459.242188 C 205.871094 468.210938 191.335938 468.210938 182.363281 459.234375 C 173.394531 450.273438 173.394531 435.730469 182.363281 426.757812 L 309.253906 299.886719 C 318.222656 290.917969 318.222656 276.375 309.257812 267.40625 C 300.285156 258.4375 285.734375 258.4375 276.769531 267.40625 L 154.949219 389.203125 L 136.683594 407.476562 L -94.765625 638.894531 C -103.734375 647.863281 -103.734375 662.402344 -94.765625 671.378906 C -85.792969 680.339844 -71.253906 680.339844 -62.28125 671.378906 L 31.109375 577.992188 C 40.078125 569.023438 54.621094 569.023438 63.589844 577.992188 C 72.5625 586.960938 72.5625 601.503906 63.589844 610.472656 L 10.804688 663.253906 C 1.835938 672.222656 1.839844 686.769531 10.804688 695.730469 C 19.773438 704.699219 34.316406 704.707031 43.292969 695.730469 L 76.789062 662.238281 C 85.761719 653.269531 100.304688 653.269531 109.273438 662.238281 C 118.242188 671.207031 118.242188 685.746094 109.273438 694.714844 L 269.664062 534.347656 L 75.777344 728.214844 C 66.800781 737.179688 66.804688 751.726562 75.777344 760.695312 C 84.738281 769.664062 99.289062 769.664062 108.257812 760.695312 L 396.550781 472.4375 C 405.527344 463.46875 405.527344 448.921875 396.550781 439.953125 " fill-opacity="1" fill-rule="nonzero"/><path fill="#fcce54" d="M 1649.125 102.332031 C 1639.527344 92.722656 1623.945312 92.722656 1614.34375 102.328125 L 1518.671875 198.023438 L 1555.632812 161.054688 C 1546.023438 170.664062 1530.441406 170.664062 1520.84375 161.054688 C 1511.238281 151.445312 1511.238281 135.859375 1520.84375 126.257812 L 1483.875 163.226562 L 1540.410156 106.6875 C 1550.015625 97.070312 1550.015625 81.492188 1540.410156 71.882812 C 1530.804688 62.273438 1515.226562 62.273438 1505.613281 71.882812 L 1454.519531 122.996094 C 1444.914062 132.601562 1429.34375 132.601562 1419.738281 122.992188 C 1410.128906 113.382812 1410.128906 97.804688 1419.738281 88.195312 L 1425.167969 82.753906 L 1555.632812 -47.730469 C 1565.238281 -57.339844 1565.238281 -72.925781 1555.636719 -82.535156 C 1546.023438 -92.144531 1530.441406 -92.144531 1520.84375 -82.535156 L 1122.9375 315.464844 C 1113.332031 325.074219 1113.332031 340.65625 1122.9375 350.265625 C 1132.542969 359.871094 1148.117188 359.871094 1157.726562 350.265625 L 1257.746094 250.21875 C 1267.351562 240.609375 1282.925781 240.609375 1292.535156 250.222656 C 1302.140625 259.828125 1302.140625 275.410156 1292.535156 285.015625 L 1236 341.5625 C 1226.390625 351.175781 1226.390625 366.753906 1236.003906 376.363281 C 1245.605469 385.964844 1261.1875 385.972656 1270.789062 376.363281 L 1306.675781 340.46875 C 1316.28125 330.871094 1331.855469 330.871094 1341.457031 340.476562 C 1351.0625 350.082031 1351.0625 365.664062 1341.457031 375.277344 L 1513.230469 203.460938 L 1305.582031 411.160156 C 1295.96875 420.769531 1295.976562 436.355469 1305.582031 445.957031 C 1315.183594 455.566406 1330.765625 455.566406 1340.371094 445.957031 L 1649.125 137.128906 C 1658.738281 127.519531 1658.738281 111.941406 1649.125 102.332031 " fill-opacity="1" fill-rule="nonzero"/><path fill="#b2e5d6" d="M 1068.980469 337.183594 C 1078.585938 346.792969 1078.585938 362.371094 1068.980469 371.980469 L 1230.972656 209.957031 C 1221.367188 219.566406 1205.785156 219.566406 1196.183594 209.957031 C 1186.578125 200.347656 1186.578125 184.761719 1196.183594 175.160156 L 1058.113281 313.257812 L 1201.617188 169.71875 L 1332.078125 39.234375 C 1341.6875 29.617188 1341.6875 14.039062 1332.078125 4.429688 C 1322.472656 -5.179688 1306.890625 -5.179688 1297.289062 4.429688 L 1166.828125 134.917969 L 1147.261719 154.496094 L 899.382812 402.429688 C 889.777344 412.039062 889.777344 427.617188 899.382812 437.226562 C 908.992188 446.835938 924.566406 446.835938 934.171875 437.226562 L 1034.191406 337.183594 C 1043.804688 327.574219 1059.375 327.574219 1068.980469 337.183594 " fill-opacity="1" fill-rule="nonzero"/><path fill="#b2e5d6" d="M 1571.257812 182.765625 C 1561.652344 173.164062 1546.078125 173.15625 1536.464844 182.765625 L 1426.125 293.144531 C 1416.511719 302.753906 1400.941406 302.753906 1391.328125 293.144531 C 1381.722656 283.535156 1381.722656 267.957031 1391.328125 258.347656 L 1425.574219 224.09375 C 1435.179688 214.484375 1435.179688 198.898438 1425.574219 189.292969 C 1415.972656 179.6875 1400.394531 179.6875 1390.785156 189.292969 L 1295.117188 284.988281 L 1332.078125 248.011719 C 1322.472656 257.621094 1306.898438 257.621094 1297.289062 248.011719 C 1287.683594 238.410156 1287.683594 222.824219 1297.289062 213.214844 L 1260.324219 250.191406 L 1316.859375 193.644531 C 1326.464844 184.035156 1326.464844 168.449219 1316.859375 158.847656 C 1307.257812 149.230469 1291.675781 149.230469 1282.070312 158.847656 L 1012.445312 428.527344 C 1002.847656 438.136719 1002.847656 453.71875 1012.453125 463.324219 C 1022.054688 472.929688 1037.636719 472.929688 1047.242188 463.324219 L 1254.886719 255.625 L 1083.117188 427.441406 C 1092.722656 417.832031 1108.296875 417.832031 1117.90625 427.441406 C 1127.519531 437.046875 1127.519531 452.628906 1117.90625 462.234375 L 1289.679688 290.421875 L 1082.03125 498.125 C 1072.421875 507.726562 1072.421875 523.3125 1082.03125 532.921875 C 1091.636719 542.53125 1107.210938 542.53125 1116.816406 532.921875 L 1229.34375 420.371094 C 1238.949219 410.761719 1254.523438 410.761719 1264.132812 420.371094 C 1273.730469 429.980469 1273.730469 445.558594 1264.132812 455.167969 L 1266.847656 452.449219 C 1257.242188 462.058594 1257.242188 477.636719 1266.847656 487.246094 C 1276.453125 496.855469 1292.035156 496.855469 1301.636719 487.253906 L 1571.257812 217.566406 C 1580.859375 207.953125 1580.859375 192.375 1571.257812 182.765625 " fill-opacity="1" fill-rule="nonzero"/><path fill="#e362a2" d="M 1612.066406 -208.734375 C 1602.46875 -218.335938 1586.886719 -218.335938 1577.285156 -208.734375 L 1481.613281 -113.035156 L 1518.574219 -150.011719 C 1508.964844 -140.402344 1493.382812 -140.402344 1483.785156 -150.011719 C 1474.175781 -159.617188 1474.175781 -175.199219 1483.785156 -184.808594 L 1446.816406 -147.832031 L 1503.351562 -204.378906 C 1512.957031 -213.988281 1512.957031 -229.574219 1503.351562 -239.175781 C 1493.742188 -248.792969 1478.167969 -248.792969 1468.554688 -239.175781 L 1417.460938 -188.070312 C 1407.851562 -178.460938 1392.285156 -178.460938 1382.679688 -188.074219 C 1373.070312 -197.679688 1373.070312 -213.257812 1382.679688 -222.871094 L 1518.574219 -358.796875 C 1528.179688 -368.40625 1528.179688 -383.984375 1518.578125 -393.59375 C 1508.964844 -403.203125 1493.382812 -403.203125 1483.785156 -393.59375 L 1353.316406 -263.109375 L 1333.753906 -243.53125 L 1085.878906 4.402344 C 1076.269531 14.011719 1076.269531 29.589844 1085.878906 39.207031 C 1095.484375 48.808594 1111.058594 48.808594 1120.667969 39.207031 L 1220.6875 -60.84375 C 1230.292969 -70.453125 1245.867188 -70.453125 1255.472656 -60.84375 C 1265.082031 -51.234375 1265.082031 -35.65625 1255.472656 -26.046875 L 1198.941406 30.5 C 1189.332031 40.109375 1189.339844 55.695312 1198.941406 65.296875 C 1208.546875 74.90625 1224.121094 74.914062 1233.734375 65.296875 L 1269.609375 29.414062 C 1279.214844 19.804688 1294.792969 19.804688 1304.398438 29.414062 C 1314.003906 39.023438 1314.003906 54.601562 1304.398438 64.210938 L 1476.171875 -107.605469 L 1268.523438 100.101562 C 1258.910156 109.703125 1258.917969 125.289062 1268.523438 134.898438 C 1278.125 144.507812 1293.703125 144.507812 1303.3125 134.898438 L 1612.066406 -173.929688 C 1621.679688 -183.539062 1621.679688 -199.125 1612.066406 -208.734375 " fill-opacity="1" fill-rule="nonzero"/><path fill="#f0f0a1" d="M 208.238281 122.214844 L 189.507812 155.023438 L 170.78125 122.214844 Z M 208.238281 122.214844 " fill-opacity="1" fill-rule="nonzero"/><g clip-path="url(#6c39fa75c8)"><path fill="#f0f0a1" d="M 189.507812 158.582031 L 189.421875 158.40625 L 167.363281 120.433594 L 211.613281 120.433594 Z M 167.753906 120.652344 L 189.507812 158.144531 L 211.265625 120.652344 Z M 167.753906 120.652344 " fill-opacity="1" fill-rule="nonzero"/></g><g clip-path="url(#807b5af2f0)"><g clip-path="url(#b1056fd671)"><g clip-path="url(#d2cf5de893)"><g clip-path="url(#e3aaf8d6a0)"><path fill="#f0f0a1" d="M 899.636719 185.847656 L 824.089844 200.59375 L 849.949219 128.09375 Z M 899.636719 185.847656 " fill-opacity="1" fill-rule="nonzero"/></g></g></g></g><g clip-path="url(#49702395ef)"><g clip-path="url(#a7b5ac0084)"><g clip-path="url(#894ae04c22)"><g clip-path="url(#1489355d4e)"><path fill="#f0f0a1" d="M 818.589844 205.324219 L 818.742188 204.960938 L 848.164062 120.457031 L 906.863281 188.683594 Z M 848.347656 121.347656 L 819.261719 204.746094 L 906.066406 188.4375 Z M 848.347656 121.347656 " fill-opacity="1" fill-rule="nonzero"/></g></g></g></g><g clip-path="url(#26ae2ea3b6)"><g clip-path="url(#a6c5143e05)"><g clip-path="url(#81e61c63dd)"><g clip-path="url(#20caa253e8)"><path fill="#f0f0a1" d="M 618.859375 656.960938 L 551.472656 692.660156 L 555.058594 616.488281 Z M 618.859375 656.960938 " fill-opacity="1" fill-rule="nonzero"/></g></g></g></g><g clip-path="url(#53f1d66ea1)"><g clip-path="url(#6cb759a087)"><g clip-path="url(#6d58a5fc0c)"><g clip-path="url(#3b77eed1e0)"><path fill="#f0f0a1" d="M 547.625 698.726562 L 547.664062 698.335938 L 551.164062 609.761719 L 626.527344 657.574219 Z M 551.59375 610.554688 L 548.09375 697.988281 L 625.703125 657.570312 Z M 551.59375 610.554688 " fill-opacity="1" fill-rule="nonzero"/></g></g></g></g><g clip-path="url(#c6b6a9a26a)"><g clip-path="url(#4cff313a36)"><g clip-path="url(#06d85ea5e3)"><g clip-path="url(#923701108c)"><path fill="#f0f0a1" d="M 1190.183594 692.226562 L 1146.671875 679.835938 L 1179.292969 648.484375 Z M 1190.183594 692.226562 " fill-opacity="1" fill-rule="nonzero"/></g></g></g></g><g clip-path="url(#680e3fb27d)"><g clip-path="url(#a8c2ccbb8a)"><g clip-path="url(#7f478b24eb)"><g clip-path="url(#b51af72c4d)"><path fill="#f0f0a1" d="M 1142.542969 680.863281 L 1142.71875 680.710938 L 1180.363281 643.980469 L 1193.230469 695.652344 Z M 1180.222656 644.496094 L 1143.046875 680.738281 L 1192.878906 695.3125 Z M 1180.222656 644.496094 " fill-opacity="1" fill-rule="nonzero"/></g></g></g></g><g clip-path="url(#f8d43eee3c)"><path fill="#bacfed" d="M 527.90625 97.648438 C 464.796875 97.648438 413.640625 148.804688 413.640625 211.914062 C 413.640625 275.039062 464.796875 326.191406 527.90625 326.191406 C 591.035156 326.191406 642.1875 275.039062 642.1875 211.914062 C 642.1875 148.804688 591.035156 97.648438 527.90625 97.648438 Z M 527.90625 113.785156 C 473.71875 113.785156 429.773438 157.722656 429.773438 211.914062 C 429.773438 266.121094 473.71875 310.058594 527.90625 310.058594 C 582.113281 310.058594 626.054688 266.117188 626.054688 211.914062 C 626.054688 157.722656 582.113281 113.785156 527.90625 113.785156 Z M 527.90625 113.785156 " fill-opacity="1" fill-rule="evenodd"/></g><path fill="#d14a95" d="M 505.6875 101.890625 L 519.191406 119.117188 C 521.613281 123.359375 523.585938 127.742188 525.121094 132.246094 L 494.371094 92.972656 C 498.378906 95.535156 502.164062 98.511719 505.6875 101.890625 Z M 505.6875 101.890625 " fill-opacity="1" fill-rule="evenodd"/><path fill="#d14a95" d="M 484.042969 87.433594 L 528.03125 143.609375 C 528.421875 145.800781 528.703125 148.023438 528.894531 150.242188 L 477.800781 85.007812 C 479.914062 85.726562 481.996094 86.523438 484.042969 87.433594 Z M 484.042969 87.433594 " fill-opacity="1" fill-rule="evenodd"/><path fill="#d14a95" d="M 470.132812 82.847656 L 529.144531 158.207031 C 529.113281 159.945312 529.019531 161.664062 528.863281 163.386719 L 465.03125 81.890625 C 466.738281 82.15625 468.441406 82.46875 470.132812 82.847656 Z M 470.132812 82.847656 " fill-opacity="1" fill-rule="evenodd"/><path fill="#d14a95" d="M 458.472656 81.171875 L 528 169.929688 C 527.734375 171.382812 527.4375 172.855469 527.078125 174.3125 L 454 81 C 455.5 81.015625 456.988281 81.0625 458.472656 81.171875 Z M 458.472656 81.171875 " fill-opacity="1" fill-rule="evenodd"/><path fill="#d14a95" d="M 448.164062 81.171875 L 525.511719 179.941406 C 525.089844 181.226562 524.652344 182.492188 524.167969 183.761719 L 444.125 81.5625 C 445.472656 81.40625 446.816406 81.265625 448.164062 81.171875 Z M 448.164062 81.171875 " fill-opacity="1" fill-rule="evenodd"/><path fill="#d14a95" d="M 438.804688 82.425781 L 522.070312 188.722656 C 521.523438 189.863281 520.957031 190.988281 520.378906 192.117188 L 435.109375 83.253906 C 436.332031 82.941406 437.566406 82.660156 438.804688 82.425781 Z M 438.804688 82.425781 " fill-opacity="1" fill-rule="evenodd"/><path fill="#d14a95" d="M 430.210938 84.644531 L 517.84375 196.53125 C 517.21875 197.546875 516.5625 198.566406 515.875 199.550781 L 426.800781 85.835938 C 427.945312 85.414062 429.070312 85.003906 430.210938 84.644531 Z M 430.210938 84.644531 " fill-opacity="1" fill-rule="evenodd"/><path fill="#d14a95" d="M 422.296875 87.710938 L 512.960938 203.496094 C 512.242188 204.402344 511.507812 205.308594 510.738281 206.1875 L 419.132812 89.230469 C 420.183594 88.699219 421.230469 88.199219 422.296875 87.710938 Z M 422.296875 87.710938 " fill-opacity="1" fill-rule="evenodd"/><path fill="#d14a95" d="M 414.957031 91.53125 L 507.503906 209.691406 C 506.703125 210.503906 505.875 211.300781 505.03125 212.085938 L 412.046875 93.347656 C 413 92.722656 413.96875 92.109375 414.957031 91.53125 Z M 414.957031 91.53125 " fill-opacity="1" fill-rule="evenodd"/><path fill="#d14a95" d="M 408.179688 96.054688 L 501.476562 215.199219 C 501.039062 215.558594 500.601562 215.917969 500.148438 216.265625 C 499.695312 216.625 499.238281 216.96875 498.785156 217.296875 L 405.488281 98.167969 C 405.925781 97.808594 406.363281 97.449219 406.816406 97.101562 C 407.257812 96.742188 407.710938 96.398438 408.179688 96.054688 Z M 408.179688 96.054688 " fill-opacity="1" fill-rule="evenodd"/><path fill="#d14a95" d="M 401.921875 101.265625 L 494.917969 220.003906 C 493.964844 220.644531 492.992188 221.253906 492.007812 221.835938 L 399.464844 103.660156 C 400.261719 102.84375 401.074219 102.0625 401.921875 101.265625 Z M 401.921875 101.265625 " fill-opacity="1" fill-rule="evenodd"/><path fill="#d14a95" d="M 396.222656 107.179688 L 487.832031 224.132812 C 486.78125 224.667969 485.734375 225.167969 484.671875 225.652344 L 393.984375 109.871094 C 394.707031 108.960938 395.457031 108.054688 396.222656 107.179688 Z M 396.222656 107.179688 " fill-opacity="1" fill-rule="evenodd"/><path fill="#d14a95" d="M 391.089844 113.8125 L 480.148438 227.53125 C 479.019531 227.953125 477.894531 228.359375 476.75 228.71875 L 389.121094 116.835938 C 389.746094 115.816406 390.402344 114.800781 391.089844 113.8125 Z M 391.089844 113.8125 " fill-opacity="1" fill-rule="evenodd"/><path fill="#d14a95" d="M 386.585938 121.246094 L 471.855469 230.113281 C 470.632812 230.425781 469.398438 230.707031 468.160156 230.941406 L 384.894531 124.644531 C 385.425781 123.5 385.988281 122.359375 386.585938 121.246094 Z M 386.585938 121.246094 " fill-opacity="1" fill-rule="evenodd"/><path fill="#d14a95" d="M 382.796875 129.605469 L 462.839844 231.785156 C 461.496094 231.957031 460.148438 232.082031 458.804688 232.175781 L 381.453125 133.421875 C 381.859375 132.140625 382.3125 130.871094 382.796875 129.605469 Z M 382.796875 129.605469 " fill-opacity="1" fill-rule="evenodd"/><path fill="#d14a95" d="M 379.871094 139.054688 L 452.949219 232.367188 C 451.464844 232.347656 449.960938 232.304688 448.476562 232.191406 L 378.964844 143.4375 C 379.230469 141.964844 379.527344 140.511719 379.871094 139.054688 Z M 379.871094 139.054688 " fill-opacity="1" fill-rule="evenodd"/><g clip-path="url(#32d507abc9)"><path fill="#d14a95" d="M 378.101562 149.976562 L 441.933594 231.472656 C 440.210938 231.207031 438.523438 230.894531 436.832031 230.503906 L 377.804688 155.15625 C 377.851562 153.421875 377.945312 151.699219 378.101562 149.976562 Z M 378.101562 149.976562 " fill-opacity="1" fill-rule="evenodd"/></g><path fill="#d14a95" d="M 378.070312 163.121094 L 429.148438 228.359375 C 427.050781 227.636719 424.96875 226.824219 422.917969 225.933594 L 378.914062 169.757812 C 378.542969 167.550781 378.257812 165.34375 378.070312 163.121094 Z M 378.070312 163.121094 " fill-opacity="1" fill-rule="evenodd"/><path fill="#d14a95" d="M 381.828125 181.117188 L 412.59375 220.378906 C 408.585938 217.8125 404.796875 214.839844 401.261719 211.476562 L 387.773438 194.246094 C 385.347656 190.003906 383.363281 185.609375 381.828125 181.117188 Z M 381.828125 181.117188 " fill-opacity="1" fill-rule="evenodd"/><g clip-path="url(#4617889a68)"><path fill="#bacfed" d="M 894.269531 614.746094 C 919.585938 614.746094 940.105469 635.394531 940.105469 660.871094 C 940.105469 686.351562 919.585938 707.003906 894.269531 707.003906 C 868.949219 707.003906 848.429688 686.351562 848.429688 660.871094 C 848.429688 635.394531 868.949219 614.746094 894.269531 614.746094 Z M 894.269531 621.257812 C 916.007812 621.257812 933.632812 638.996094 933.632812 660.871094 C 933.632812 682.753906 916.007812 700.488281 894.269531 700.488281 C 872.527344 700.488281 854.902344 682.753906 854.902344 660.871094 C 854.902344 638.996094 872.527344 621.257812 894.269531 621.257812 Z M 894.269531 621.257812 " fill-opacity="1" fill-rule="evenodd"/></g><path fill="#d14a95" d="M 903.183594 616.457031 L 897.769531 623.414062 C 896.796875 625.125 896.003906 626.894531 895.390625 628.710938 L 907.722656 612.859375 C 906.117188 613.894531 904.597656 615.09375 903.183594 616.457031 Z M 903.183594 616.457031 " fill-opacity="1" fill-rule="evenodd"/><path fill="#d14a95" d="M 911.867188 610.621094 L 894.222656 633.300781 C 894.066406 634.183594 893.953125 635.082031 893.875 635.976562 L 914.371094 609.644531 C 913.523438 609.933594 912.6875 610.253906 911.867188 610.621094 Z M 911.867188 610.621094 " fill-opacity="1" fill-rule="evenodd"/><g clip-path="url(#b06c8a8b87)"><path fill="#d14a95" d="M 917.445312 608.769531 L 893.777344 639.191406 C 893.789062 639.894531 893.824219 640.589844 893.886719 641.285156 L 919.492188 608.386719 C 918.808594 608.492188 918.125 608.621094 917.445312 608.769531 Z M 917.445312 608.769531 " fill-opacity="1" fill-rule="evenodd"/></g><g clip-path="url(#cbab7a3b8c)"><path fill="#d14a95" d="M 922.121094 608.09375 L 894.234375 643.921875 C 894.339844 644.511719 894.460938 645.105469 894.605469 645.691406 L 923.917969 608.027344 C 923.316406 608.03125 922.71875 608.050781 922.121094 608.09375 Z M 922.121094 608.09375 " fill-opacity="1" fill-rule="evenodd"/></g><g clip-path="url(#a1e1556bdd)"><path fill="#d14a95" d="M 926.257812 608.09375 L 895.230469 647.964844 C 895.402344 648.484375 895.578125 648.996094 895.773438 649.507812 L 927.878906 608.253906 C 927.339844 608.191406 926.796875 608.132812 926.257812 608.09375 Z M 926.257812 608.09375 " fill-opacity="1" fill-rule="evenodd"/></g><g clip-path="url(#56b585958d)"><path fill="#d14a95" d="M 930.011719 608.601562 L 896.613281 651.507812 C 896.832031 651.972656 897.058594 652.425781 897.292969 652.878906 L 931.496094 608.933594 C 931.003906 608.808594 930.507812 608.695312 930.011719 608.601562 Z M 930.011719 608.601562 " fill-opacity="1" fill-rule="evenodd"/></g><path fill="#d14a95" d="M 933.460938 609.496094 L 898.308594 654.664062 C 898.558594 655.074219 898.824219 655.484375 899.097656 655.882812 L 934.828125 609.976562 C 934.371094 609.808594 933.917969 609.644531 933.460938 609.496094 Z M 933.460938 609.496094 " fill-opacity="1" fill-rule="evenodd"/><path fill="#d14a95" d="M 936.636719 610.734375 L 900.265625 657.472656 C 900.554688 657.839844 900.851562 658.207031 901.15625 658.558594 L 937.902344 611.347656 C 937.484375 611.132812 937.0625 610.929688 936.636719 610.734375 Z M 936.636719 610.734375 " fill-opacity="1" fill-rule="evenodd"/><path fill="#d14a95" d="M 939.578125 612.277344 L 902.457031 659.972656 C 902.777344 660.304688 903.109375 660.625 903.449219 660.941406 L 940.746094 613.007812 C 940.363281 612.757812 939.972656 612.511719 939.578125 612.277344 Z M 939.578125 612.277344 " fill-opacity="1" fill-rule="evenodd"/><path fill="#d14a95" d="M 942.296875 614.101562 L 904.875 662.199219 C 905.046875 662.34375 905.226562 662.488281 905.40625 662.628906 C 905.589844 662.773438 905.769531 662.910156 905.953125 663.042969 L 943.375 614.957031 C 943.199219 614.808594 943.023438 614.664062 942.84375 614.527344 C 942.667969 614.378906 942.484375 614.242188 942.296875 614.101562 Z M 942.296875 614.101562 " fill-opacity="1" fill-rule="evenodd"/><path fill="#d14a95" d="M 944.808594 616.207031 L 907.503906 664.136719 C 907.886719 664.394531 908.277344 664.640625 908.671875 664.875 L 945.792969 617.171875 C 945.472656 616.84375 945.148438 616.527344 944.808594 616.207031 Z M 944.808594 616.207031 " fill-opacity="1" fill-rule="evenodd"/><path fill="#d14a95" d="M 947.09375 618.59375 L 910.347656 665.804688 C 910.769531 666.019531 911.1875 666.222656 911.613281 666.417969 L 947.992188 619.679688 C 947.703125 619.3125 947.398438 618.949219 947.09375 618.59375 Z M 947.09375 618.59375 " fill-opacity="1" fill-rule="evenodd"/><path fill="#d14a95" d="M 949.152344 621.273438 L 913.429688 667.175781 C 913.882812 667.347656 914.332031 667.511719 914.792969 667.65625 L 949.941406 622.492188 C 949.691406 622.082031 949.425781 621.671875 949.152344 621.273438 Z M 949.152344 621.273438 " fill-opacity="1" fill-rule="evenodd"/><path fill="#d14a95" d="M 950.960938 624.273438 L 916.757812 668.21875 C 917.246094 668.34375 917.742188 668.457031 918.238281 668.550781 L 951.636719 625.644531 C 951.421875 625.183594 951.199219 624.71875 950.960938 624.273438 Z M 950.960938 624.273438 " fill-opacity="1" fill-rule="evenodd"/><path fill="#d14a95" d="M 952.476562 627.644531 L 920.371094 668.894531 C 920.910156 668.964844 921.449219 669.011719 921.992188 669.050781 L 953.019531 629.1875 C 952.855469 628.667969 952.671875 628.15625 952.476562 627.644531 Z M 952.476562 627.644531 " fill-opacity="1" fill-rule="evenodd"/><g clip-path="url(#1cb66b9164)"><path fill="#d14a95" d="M 953.652344 631.460938 L 924.339844 669.128906 C 924.933594 669.121094 925.539062 669.101562 926.132812 669.058594 L 954.015625 633.230469 C 953.910156 632.636719 953.789062 632.046875 953.652344 631.460938 Z M 953.652344 631.460938 " fill-opacity="1" fill-rule="evenodd"/></g><g clip-path="url(#09feeb11be)"><path fill="#d14a95" d="M 954.363281 635.871094 L 928.757812 668.765625 C 929.449219 668.660156 930.125 668.535156 930.804688 668.375 L 954.480469 637.960938 C 954.460938 637.257812 954.425781 636.5625 954.363281 635.871094 Z M 954.363281 635.871094 " fill-opacity="1" fill-rule="evenodd"/></g><g clip-path="url(#64ec4cb935)"><path fill="#d14a95" d="M 954.375 641.175781 L 933.886719 667.511719 C 934.726562 667.21875 935.5625 666.890625 936.382812 666.53125 L 954.035156 643.855469 C 954.183594 642.964844 954.296875 642.074219 954.375 641.175781 Z M 954.375 641.175781 " fill-opacity="1" fill-rule="evenodd"/></g><path fill="#d14a95" d="M 952.867188 648.441406 L 940.527344 664.289062 C 942.132812 663.253906 943.652344 662.050781 945.070312 660.695312 L 950.484375 653.738281 C 951.453125 652.027344 952.253906 650.253906 952.867188 648.441406 Z M 952.867188 648.441406 " fill-opacity="1" fill-rule="evenodd"/><path fill="#f3a1b6" d="M 10.007812 -166.613281 L -106.066406 126.011719 C -104.035156 127.460938 -101.957031 128.863281 -99.851562 130.21875 L 17.40625 -165.40625 C 14.941406 -165.863281 12.472656 -166.273438 10.007812 -166.613281 Z M 10.007812 -166.613281 " fill-opacity="1" fill-rule="evenodd"/><path fill="#f3a1b6" d="M 27.386719 -163.207031 L -91.078125 135.464844 C -88.949219 136.648438 -86.777344 137.78125 -84.578125 138.871094 L 34.472656 -161.246094 C 32.101562 -161.949219 29.757812 -162.625 27.386719 -163.207031 Z M 27.386719 -163.207031 " fill-opacity="1" fill-rule="evenodd"/><path fill="#f3a1b6" d="M 44.042969 -158.007812 L -75.390625 143.101562 C -74.277344 143.585938 -73.140625 144.042969 -72.003906 144.503906 C -70.871094 144.9375 -69.734375 145.371094 -68.597656 145.808594 L 50.859375 -155.324219 C 49.722656 -155.785156 48.609375 -156.269531 47.476562 -156.703125 C 46.339844 -157.164062 45.179688 -157.597656 44.042969 -158.007812 Z M 44.042969 -158.007812 " fill-opacity="1" fill-rule="evenodd"/><path fill="#f3a1b6" d="M 60.019531 -151.09375 L -59.003906 149.023438 C -56.65625 149.722656 -54.289062 150.398438 -51.917969 151.003906 L 66.546875 -147.6875 C 64.417969 -148.871094 62.242188 -150.007812 60.019531 -151.09375 Z M 60.019531 -151.09375 " fill-opacity="1" fill-rule="evenodd"/><path fill="#f3a1b6" d="M 75.320312 -142.441406 L -41.9375 153.179688 C -39.46875 153.640625 -37.003906 154.050781 -34.539062 154.386719 L 81.53125 -138.234375 C 79.503906 -139.6875 77.425781 -141.089844 75.320312 -142.441406 Z M 75.320312 -142.441406 " fill-opacity="1" fill-rule="evenodd"/><g clip-path="url(#287d15c633)"><path fill="#f3a1b6" d="M 89.875 -131.925781 L -24.144531 155.5 C -21.558594 155.691406 -18.972656 155.839844 -16.410156 155.886719 L 95.769531 -126.921875 C 93.835938 -128.613281 91.878906 -130.308594 89.875 -131.925781 Z M 89.875 -131.925781 " fill-opacity="1" fill-rule="evenodd"/></g><g clip-path="url(#c1a8c63053)"><path fill="#f3a1b6" d="M 103.628906 -119.382812 L -5.535156 155.789062 C -2.828125 155.691406 -0.117188 155.5 2.566406 155.257812 L 109.140625 -113.4375 C 107.351562 -115.464844 105.511719 -117.449219 103.628906 -119.382812 Z M 103.628906 -119.382812 " fill-opacity="1" fill-rule="evenodd"/></g><path fill="#f3a1b6" d="M 116.460938 -104.515625 L 13.996094 153.785156 C 16.871094 153.300781 19.699219 152.769531 22.527344 152.140625 L 121.539062 -97.484375 C 119.917969 -99.875 118.226562 -102.21875 116.460938 -104.515625 Z M 116.460938 -104.515625 " fill-opacity="1" fill-rule="evenodd"/><path fill="#f3a1b6" d="M 128.183594 -86.871094 L 34.640625 148.972656 C 37.710938 148.03125 40.730469 147.015625 43.726562 145.902344 L 132.703125 -78.410156 C 131.277344 -81.289062 129.78125 -84.09375 128.183594 -86.871094 Z M 128.183594 -86.871094 " fill-opacity="1" fill-rule="evenodd"/><path fill="#f3a1b6" d="M 138.457031 -65.527344 L 56.730469 140.464844 C 60.09375 138.894531 63.378906 137.203125 66.617188 135.390625 L 142.179688 -55.0625 C 141.042969 -58.589844 139.8125 -62.09375 138.457031 -65.527344 Z M 138.457031 -65.527344 " fill-opacity="1" fill-rule="evenodd"/><path fill="#f3a1b6" d="M 146.484375 -38.550781 L 81.074219 126.324219 C 84.96875 123.570312 88.761719 120.667969 92.410156 117.574219 L 148.730469 -24.410156 C 148.199219 -29.171875 147.425781 -33.886719 146.484375 -38.550781 Z M 146.484375 -38.550781 " fill-opacity="1" fill-rule="evenodd"/><g clip-path="url(#3464ac4677)"><path fill="#f3a1b6" d="M 149.648438 0.679688 L 110.273438 99.929688 C 116.921875 92.242188 122.914062 83.828125 128.109375 74.789062 L 145.394531 31.207031 C 147.8125 21.058594 149.214844 10.832031 149.648438 0.679688 Z M 149.648438 0.679688 " fill-opacity="1" fill-rule="evenodd"/></g><g clip-path="url(#07aa6e1ddd)"><path fill="#f3a1b6" d="M 653.949219 390.648438 L 645.027344 413.144531 C 643.78125 418.386719 643.070312 423.664062 642.84375 428.902344 L 663.171875 377.671875 C 659.726562 381.636719 656.644531 385.980469 653.949219 390.648438 Z M 653.949219 390.648438 " fill-opacity="1" fill-rule="evenodd"/></g><path fill="#f3a1b6" d="M 672.378906 368.5625 L 643.304688 441.855469 C 643.59375 444.3125 643.980469 446.746094 644.480469 449.15625 L 678.242188 364.046875 C 676.222656 365.46875 674.273438 366.964844 672.378906 368.5625 Z M 672.378906 368.5625 " fill-opacity="1" fill-rule="evenodd"/><path fill="#f3a1b6" d="M 685.691406 359.367188 L 646.699219 457.675781 C 647.273438 459.511719 647.921875 461.308594 648.621094 463.078125 L 690.796875 356.746094 C 689.074219 357.554688 687.363281 358.429688 685.691406 359.367188 Z M 685.691406 359.367188 " fill-opacity="1" fill-rule="evenodd"/><path fill="#f3a1b6" d="M 697.519531 353.9375 L 651.589844 469.742188 C 652.316406 471.214844 653.101562 472.660156 653.925781 474.097656 L 702.210938 352.367188 C 700.628906 352.839844 699.066406 353.363281 697.519531 353.9375 Z M 697.519531 353.9375 " fill-opacity="1" fill-rule="evenodd"/><path fill="#f3a1b6" d="M 708.464844 350.71875 L 657.34375 479.574219 C 658.191406 480.808594 659.066406 482.019531 659.976562 483.207031 L 712.855469 349.871094 C 711.382812 350.121094 709.910156 350.394531 708.464844 350.71875 Z M 708.464844 350.71875 " fill-opacity="1" fill-rule="evenodd"/><g clip-path="url(#eb4cf58adf)"><path fill="#f3a1b6" d="M 718.757812 349.109375 L 663.746094 487.808594 C 664.667969 488.859375 665.617188 489.882812 666.601562 490.878906 L 722.9375 348.835938 C 721.542969 348.898438 720.15625 348.984375 718.757812 349.109375 Z M 718.757812 349.109375 " fill-opacity="1" fill-rule="evenodd"/></g><g clip-path="url(#37b228f64d)"><path fill="#f3a1b6" d="M 728.566406 348.785156 L 670.65625 494.773438 C 671.644531 495.65625 672.667969 496.519531 673.703125 497.355469 L 732.546875 348.984375 C 731.222656 348.882812 729.886719 348.808594 728.566406 348.785156 Z M 728.566406 348.785156 " fill-opacity="1" fill-rule="evenodd"/></g><path fill="#f3a1b6" d="M 737.925781 349.558594 L 678.007812 500.613281 C 679.054688 501.359375 680.128906 502.085938 681.210938 502.785156 L 741.742188 350.183594 C 740.46875 349.945312 739.195312 349.734375 737.925781 349.558594 Z M 737.925781 349.558594 " fill-opacity="1" fill-rule="evenodd"/><path fill="#f3a1b6" d="M 746.894531 351.316406 L 685.742188 505.492188 C 686.839844 506.101562 687.964844 506.6875 689.097656 507.25 L 750.550781 352.328125 C 749.328125 351.964844 748.117188 351.617188 746.894531 351.316406 Z M 746.894531 351.316406 " fill-opacity="1" fill-rule="evenodd"/><path fill="#f3a1b6" d="M 755.492188 354 L 693.839844 509.433594 C 694.414062 509.683594 695 509.921875 695.585938 510.15625 C 696.175781 510.382812 696.761719 510.605469 697.347656 510.832031 L 759.011719 355.386719 C 758.425781 355.148438 757.851562 354.898438 757.265625 354.675781 C 756.675781 354.4375 756.078125 354.210938 755.492188 354 Z M 755.492188 354 " fill-opacity="1" fill-rule="evenodd"/><path fill="#f3a1b6" d="M 763.738281 357.570312 L 702.300781 512.492188 C 703.511719 512.851562 704.734375 513.203125 705.957031 513.515625 L 767.109375 359.328125 C 766.011719 358.714844 764.886719 358.128906 763.738281 357.570312 Z M 763.738281 357.570312 " fill-opacity="1" fill-rule="evenodd"/><path fill="#f3a1b6" d="M 771.636719 362.035156 L 711.109375 514.636719 C 712.382812 514.875 713.65625 515.085938 714.925781 515.261719 L 774.84375 364.207031 C 773.796875 363.457031 772.722656 362.734375 771.636719 362.035156 Z M 771.636719 362.035156 " fill-opacity="1" fill-rule="evenodd"/><g clip-path="url(#f496c17171)"><path fill="#f3a1b6" d="M 779.152344 367.464844 L 720.292969 515.835938 C 721.628906 515.933594 722.964844 516.007812 724.285156 516.035156 L 782.195312 370.046875 C 781.195312 369.171875 780.183594 368.300781 779.152344 367.464844 Z M 779.152344 367.464844 " fill-opacity="1" fill-rule="evenodd"/></g><path fill="#f3a1b6" d="M 786.25 373.941406 L 729.902344 515.984375 C 731.296875 515.933594 732.695312 515.835938 734.082031 515.710938 L 789.09375 377.007812 C 788.171875 375.960938 787.222656 374.9375 786.25 373.941406 Z M 786.25 373.941406 " fill-opacity="1" fill-rule="evenodd"/><path fill="#f3a1b6" d="M 792.875 381.613281 L 739.980469 514.949219 C 741.46875 514.699219 742.925781 514.425781 744.386719 514.101562 L 795.496094 385.242188 C 794.660156 384.007812 793.785156 382.796875 792.875 381.613281 Z M 792.875 381.613281 " fill-opacity="1" fill-rule="evenodd"/><path fill="#f3a1b6" d="M 798.925781 390.722656 L 750.636719 512.464844 C 752.222656 511.980469 753.78125 511.453125 755.328125 510.878906 L 801.261719 395.089844 C 800.523438 393.605469 799.75 392.15625 798.925781 390.722656 Z M 798.925781 390.722656 " fill-opacity="1" fill-rule="evenodd"/><path fill="#f3a1b6" d="M 804.230469 401.738281 L 762.042969 508.074219 C 763.777344 507.261719 765.472656 506.390625 767.144531 505.453125 L 806.152344 407.140625 C 805.566406 405.320312 804.929688 403.511719 804.230469 401.738281 Z M 804.230469 401.738281 " fill-opacity="1" fill-rule="evenodd"/><path fill="#f3a1b6" d="M 808.371094 415.664062 L 774.609375 500.773438 C 776.617188 499.351562 778.578125 497.855469 780.460938 496.257812 L 809.535156 422.964844 C 809.257812 420.507812 808.859375 418.074219 808.371094 415.664062 Z M 808.371094 415.664062 " fill-opacity="1" fill-rule="evenodd"/><g clip-path="url(#52691a1916)"><path fill="#f3a1b6" d="M 810.007812 435.914062 L 789.679688 487.148438 C 793.113281 483.179688 796.207031 478.839844 798.890625 474.171875 L 807.8125 451.675781 C 809.058594 446.433594 809.78125 441.15625 810.007812 435.914062 Z M 810.007812 435.914062 " fill-opacity="1" fill-rule="evenodd"/></g><path fill="#f7bd2e" d="M 1440.863281 679.832031 C 1440.367188 680.484375 1439.578125 680.890625 1438.699219 680.890625 C 1437.886719 680.890625 1437.164062 680.53125 1436.667969 679.988281 C 1438.070312 679.921875 1439.46875 679.875 1440.863281 679.832031 Z M 1440.863281 679.832031 " fill-opacity="1" fill-rule="evenodd"/><path fill="#f7bd2e" d="M 1407.472656 685.746094 C 1408.984375 685.746094 1410.203125 686.96875 1410.203125 688.480469 C 1410.203125 689.992188 1408.984375 691.214844 1407.472656 691.214844 C 1405.960938 691.214844 1404.742188 689.992188 1404.742188 688.480469 C 1404.742188 686.96875 1405.960938 685.746094 1407.472656 685.746094 Z M 1407.472656 685.746094 " fill-opacity="1" fill-rule="evenodd"/><path fill="#f7bd2e" d="M 1428.296875 685.746094 C 1429.808594 685.746094 1431.027344 686.96875 1431.027344 688.480469 C 1431.027344 689.992188 1429.808594 691.214844 1428.296875 691.214844 C 1426.785156 691.214844 1425.566406 689.992188 1425.566406 688.480469 C 1425.566406 686.96875 1426.785156 685.746094 1428.296875 685.746094 Z M 1428.296875 685.746094 " fill-opacity="1" fill-rule="evenodd"/><path fill="#f7bd2e" d="M 1377.171875 695.957031 C 1378.230469 696.316406 1378.976562 697.335938 1378.976562 698.53125 C 1378.976562 700.023438 1377.757812 701.265625 1376.246094 701.265625 C 1374.734375 701.265625 1373.515625 700.023438 1373.515625 698.53125 C 1373.515625 698.28125 1373.558594 698.054688 1373.605469 697.855469 C 1374.777344 697.199219 1375.976562 696.566406 1377.171875 695.957031 Z M 1377.171875 695.957031 " fill-opacity="1" fill-rule="evenodd"/><path fill="#f7bd2e" d="M 1397.070312 695.796875 C 1398.582031 695.796875 1399.800781 697.019531 1399.800781 698.53125 C 1399.800781 700.023438 1398.582031 701.265625 1397.070312 701.265625 C 1395.558594 701.265625 1394.339844 700.023438 1394.339844 698.53125 C 1394.339844 697.019531 1395.558594 695.796875 1397.070312 695.796875 Z M 1397.070312 695.796875 " fill-opacity="1" fill-rule="evenodd"/><path fill="#f7bd2e" d="M 1417.894531 695.796875 C 1419.386719 695.796875 1420.625 697.019531 1420.625 698.53125 C 1420.625 700.023438 1419.386719 701.265625 1417.894531 701.265625 C 1416.382812 701.265625 1415.164062 700.023438 1415.164062 698.53125 C 1415.164062 697.019531 1416.382812 695.796875 1417.894531 695.796875 Z M 1417.894531 695.796875 " fill-opacity="1" fill-rule="evenodd"/><path fill="#f7bd2e" d="M 1438.699219 695.796875 C 1440.210938 695.796875 1441.429688 697.019531 1441.429688 698.53125 C 1441.429688 700.023438 1440.210938 701.265625 1438.699219 701.265625 C 1437.1875 701.265625 1435.96875 700.023438 1435.96875 698.53125 C 1435.96875 697.019531 1437.1875 695.796875 1438.699219 695.796875 Z M 1438.699219 695.796875 " fill-opacity="1" fill-rule="evenodd"/><path fill="#f7bd2e" d="M 1365.84375 706.121094 C 1367.355469 706.121094 1368.574219 707.339844 1368.574219 708.851562 C 1368.574219 710.367188 1367.355469 711.585938 1365.84375 711.585938 C 1364.332031 711.585938 1363.113281 710.367188 1363.113281 708.851562 C 1363.113281 707.335938 1364.332031 706.121094 1365.84375 706.121094 Z M 1365.84375 706.121094 " fill-opacity="1" fill-rule="evenodd"/><path fill="#f7bd2e" d="M 1386.667969 706.121094 C 1388.160156 706.121094 1389.398438 707.339844 1389.398438 708.851562 C 1389.398438 710.367188 1388.160156 711.585938 1386.667969 711.585938 C 1385.15625 711.585938 1383.9375 710.367188 1383.9375 708.851562 C 1383.9375 707.335938 1385.15625 706.121094 1386.667969 706.121094 Z M 1386.667969 706.121094 " fill-opacity="1" fill-rule="evenodd"/><path fill="#f7bd2e" d="M 1407.472656 706.121094 C 1408.984375 706.121094 1410.203125 707.339844 1410.203125 708.851562 C 1410.203125 710.367188 1408.984375 711.585938 1407.472656 711.585938 C 1405.960938 711.585938 1404.742188 710.367188 1404.742188 708.851562 C 1404.742188 707.335938 1405.960938 706.121094 1407.472656 706.121094 Z M 1407.472656 706.121094 " fill-opacity="1" fill-rule="evenodd"/><path fill="#f7bd2e" d="M 1428.296875 706.121094 C 1429.808594 706.121094 1431.027344 707.339844 1431.027344 708.851562 C 1431.027344 710.367188 1429.808594 711.585938 1428.296875 711.585938 C 1426.785156 711.585938 1425.566406 710.367188 1425.566406 708.851562 C 1425.566406 707.335938 1426.785156 706.121094 1428.296875 706.121094 Z M 1428.296875 706.121094 " fill-opacity="1" fill-rule="evenodd"/><path fill="#f7bd2e" d="M 1355.441406 716.148438 C 1356.929688 716.148438 1358.171875 717.386719 1358.171875 718.878906 C 1358.171875 720.394531 1356.929688 721.613281 1355.441406 721.613281 C 1353.929688 721.613281 1352.710938 720.394531 1352.710938 718.878906 C 1352.710938 717.390625 1353.929688 716.148438 1355.441406 716.148438 Z M 1355.441406 716.148438 " fill-opacity="1" fill-rule="evenodd"/><path fill="#f7bd2e" d="M 1376.246094 716.148438 C 1377.757812 716.148438 1378.976562 717.386719 1378.976562 718.878906 C 1378.976562 720.394531 1377.757812 721.613281 1376.246094 721.613281 C 1374.734375 721.613281 1373.515625 720.394531 1373.515625 718.878906 C 1373.515625 717.390625 1374.734375 716.148438 1376.246094 716.148438 Z M 1376.246094 716.148438 " fill-opacity="1" fill-rule="evenodd"/><path fill="#f7bd2e" d="M 1397.070312 716.148438 C 1398.582031 716.148438 1399.800781 717.386719 1399.800781 718.878906 C 1399.800781 720.394531 1398.582031 721.613281 1397.070312 721.613281 C 1395.558594 721.613281 1394.339844 720.394531 1394.339844 718.878906 C 1394.339844 717.390625 1395.558594 716.148438 1397.070312 716.148438 Z M 1397.070312 716.148438 " fill-opacity="1" fill-rule="evenodd"/><path fill="#f7bd2e" d="M 1417.894531 716.148438 C 1419.386719 716.148438 1420.625 717.386719 1420.625 718.878906 C 1420.625 720.394531 1419.386719 721.613281 1417.894531 721.613281 C 1416.382812 721.613281 1415.164062 720.394531 1415.164062 718.878906 C 1415.164062 717.390625 1416.382812 716.148438 1417.894531 716.148438 Z M 1417.894531 716.148438 " fill-opacity="1" fill-rule="evenodd"/><path fill="#f7bd2e" d="M 1438.699219 716.148438 C 1440.210938 716.148438 1441.429688 717.386719 1441.429688 718.878906 C 1441.429688 720.394531 1440.210938 721.613281 1438.699219 721.613281 C 1437.1875 721.613281 1435.96875 720.394531 1435.96875 718.878906 C 1435.96875 717.390625 1437.1875 716.148438 1438.699219 716.148438 Z M 1438.699219 716.148438 " fill-opacity="1" fill-rule="evenodd"/><path fill="#f7bd2e" d="M 1345.019531 726.492188 C 1346.53125 726.492188 1347.75 727.710938 1347.75 729.226562 C 1347.75 730.714844 1346.53125 731.957031 1345.019531 731.957031 C 1343.507812 731.957031 1342.289062 730.714844 1342.289062 729.226562 C 1342.289062 727.710938 1343.507812 726.492188 1345.019531 726.492188 Z M 1345.019531 726.492188 " fill-opacity="1" fill-rule="evenodd"/><path fill="#f7bd2e" d="M 1365.84375 726.492188 C 1367.355469 726.492188 1368.574219 727.710938 1368.574219 729.226562 C 1368.574219 730.714844 1367.355469 731.957031 1365.84375 731.957031 C 1364.332031 731.957031 1363.113281 730.714844 1363.113281 729.226562 C 1363.113281 727.710938 1364.332031 726.492188 1365.84375 726.492188 Z M 1365.84375 726.492188 " fill-opacity="1" fill-rule="evenodd"/><path fill="#f7bd2e" d="M 1386.667969 726.492188 C 1388.160156 726.492188 1389.398438 727.710938 1389.398438 729.226562 C 1389.398438 730.714844 1388.160156 731.957031 1386.667969 731.957031 C 1385.15625 731.957031 1383.9375 730.714844 1383.9375 729.226562 C 1383.9375 727.710938 1385.15625 726.492188 1386.667969 726.492188 Z M 1386.667969 726.492188 " fill-opacity="1" fill-rule="evenodd"/><path fill="#f7bd2e" d="M 1407.472656 726.492188 C 1408.984375 726.492188 1410.203125 727.710938 1410.203125 729.226562 C 1410.203125 730.714844 1408.984375 731.957031 1407.472656 731.957031 C 1405.960938 731.957031 1404.742188 730.714844 1404.742188 729.226562 C 1404.742188 727.710938 1405.960938 726.492188 1407.472656 726.492188 Z M 1407.472656 726.492188 " fill-opacity="1" fill-rule="evenodd"/><path fill="#f7bd2e" d="M 1428.296875 726.492188 C 1429.808594 726.492188 1431.027344 727.710938 1431.027344 729.226562 C 1431.027344 730.714844 1429.808594 731.957031 1428.296875 731.957031 C 1426.785156 731.957031 1425.566406 730.714844 1425.566406 729.226562 C 1425.566406 727.710938 1426.785156 726.492188 1428.296875 726.492188 Z M 1428.296875 726.492188 " fill-opacity="1" fill-rule="evenodd"/><path fill="#f7bd2e" d="M 1334.617188 736.519531 C 1336.128906 736.519531 1337.347656 737.738281 1337.347656 739.25 C 1337.347656 740.765625 1336.128906 741.984375 1334.617188 741.984375 C 1333.105469 741.984375 1331.886719 740.765625 1331.886719 739.25 C 1331.886719 737.738281 1333.101562 736.519531 1334.617188 736.519531 Z M 1334.617188 736.519531 " fill-opacity="1" fill-rule="evenodd"/><path fill="#f7bd2e" d="M 1355.441406 736.519531 C 1356.929688 736.519531 1358.171875 737.738281 1358.171875 739.25 C 1358.171875 740.765625 1356.929688 741.984375 1355.441406 741.984375 C 1353.929688 741.984375 1352.710938 740.765625 1352.710938 739.25 C 1352.710938 737.738281 1353.929688 736.519531 1355.441406 736.519531 Z M 1355.441406 736.519531 " fill-opacity="1" fill-rule="evenodd"/><path fill="#f7bd2e" d="M 1376.246094 736.519531 C 1377.757812 736.519531 1378.976562 737.738281 1378.976562 739.25 C 1378.976562 740.765625 1377.757812 741.984375 1376.246094 741.984375 C 1374.734375 741.984375 1373.515625 740.765625 1373.515625 739.25 C 1373.515625 737.738281 1374.734375 736.519531 1376.246094 736.519531 Z M 1376.246094 736.519531 " fill-opacity="1" fill-rule="evenodd"/><path fill="#f7bd2e" d="M 1397.070312 736.519531 C 1398.582031 736.519531 1399.800781 737.738281 1399.800781 739.25 C 1399.800781 740.765625 1398.582031 741.984375 1397.070312 741.984375 C 1395.558594 741.984375 1394.339844 740.765625 1394.339844 739.25 C 1394.339844 737.738281 1395.558594 736.519531 1397.070312 736.519531 Z M 1397.070312 736.519531 " fill-opacity="1" fill-rule="evenodd"/><path fill="#f7bd2e" d="M 1417.894531 736.519531 C 1419.386719 736.519531 1420.625 737.738281 1420.625 739.25 C 1420.625 740.765625 1419.386719 741.984375 1417.894531 741.984375 C 1416.382812 741.984375 1415.164062 740.765625 1415.164062 739.25 C 1415.164062 737.738281 1416.382812 736.519531 1417.894531 736.519531 Z M 1417.894531 736.519531 " fill-opacity="1" fill-rule="evenodd"/><path fill="#f7bd2e" d="M 1438.699219 736.519531 C 1440.210938 736.519531 1441.429688 737.738281 1441.429688 739.25 C 1441.429688 740.765625 1440.210938 741.984375 1438.699219 741.984375 C 1437.1875 741.984375 1435.96875 740.765625 1435.96875 739.25 C 1435.96875 737.738281 1437.1875 736.519531 1438.699219 736.519531 Z M 1438.699219 736.519531 " fill-opacity="1" fill-rule="evenodd"/><path fill="#f7bd2e" d="M 1324.214844 746.839844 C 1325.703125 746.839844 1326.945312 748.082031 1326.945312 749.574219 C 1326.945312 751.085938 1325.703125 752.304688 1324.214844 752.304688 C 1322.703125 752.304688 1321.484375 751.085938 1321.484375 749.574219 C 1321.484375 748.082031 1322.703125 746.839844 1324.214844 746.839844 Z M 1324.214844 746.839844 " fill-opacity="1" fill-rule="evenodd"/><path fill="#f7bd2e" d="M 1345.019531 746.839844 C 1346.53125 746.839844 1347.75 748.082031 1347.75 749.574219 C 1347.75 751.085938 1346.53125 752.304688 1345.019531 752.304688 C 1343.507812 752.304688 1342.289062 751.085938 1342.289062 749.574219 C 1342.289062 748.082031 1343.507812 746.839844 1345.019531 746.839844 Z M 1345.019531 746.839844 " fill-opacity="1" fill-rule="evenodd"/><path fill="#f7bd2e" d="M 1365.84375 746.839844 C 1367.355469 746.839844 1368.574219 748.082031 1368.574219 749.574219 C 1368.574219 751.085938 1367.355469 752.304688 1365.84375 752.304688 C 1364.332031 752.304688 1363.113281 751.085938 1363.113281 749.574219 C 1363.113281 748.082031 1364.332031 746.839844 1365.84375 746.839844 Z M 1365.84375 746.839844 " fill-opacity="1" fill-rule="evenodd"/><path fill="#f7bd2e" d="M 1386.667969 746.839844 C 1388.160156 746.839844 1389.398438 748.082031 1389.398438 749.574219 C 1389.398438 751.085938 1388.160156 752.304688 1386.667969 752.304688 C 1385.15625 752.304688 1383.9375 751.085938 1383.9375 749.574219 C 1383.9375 748.082031 1385.15625 746.839844 1386.667969 746.839844 Z M 1386.667969 746.839844 " fill-opacity="1" fill-rule="evenodd"/><path fill="#f7bd2e" d="M 1407.472656 746.839844 C 1408.984375 746.839844 1410.203125 748.082031 1410.203125 749.574219 C 1410.203125 751.085938 1408.984375 752.304688 1407.472656 752.304688 C 1405.960938 752.304688 1404.742188 751.085938 1404.742188 749.574219 C 1404.742188 748.082031 1405.960938 746.839844 1407.472656 746.839844 Z M 1407.472656 746.839844 " fill-opacity="1" fill-rule="evenodd"/><path fill="#f7bd2e" d="M 1428.296875 746.839844 C 1429.808594 746.839844 1431.027344 748.082031 1431.027344 749.574219 C 1431.027344 751.085938 1429.808594 752.304688 1428.296875 752.304688 C 1426.785156 752.304688 1425.566406 751.085938 1425.566406 749.574219 C 1425.566406 748.082031 1426.785156 746.839844 1428.296875 746.839844 Z M 1428.296875 746.839844 " fill-opacity="1" fill-rule="evenodd"/><path fill="#f7bd2e" d="M 1315.074219 757.207031 C 1315.933594 757.660156 1316.519531 758.585938 1316.519531 759.625 C 1316.519531 761.136719 1315.300781 762.355469 1313.789062 762.355469 C 1313.359375 762.355469 1312.953125 762.265625 1312.59375 762.085938 C 1313.382812 760.4375 1314.21875 758.808594 1315.074219 757.207031 Z M 1315.074219 757.207031 " fill-opacity="1" fill-rule="evenodd"/><path fill="#f7bd2e" d="M 1334.617188 756.890625 C 1336.128906 756.890625 1337.347656 758.109375 1337.347656 759.625 C 1337.347656 761.136719 1336.128906 762.355469 1334.617188 762.355469 C 1333.105469 762.355469 1331.886719 761.136719 1331.886719 759.625 C 1331.886719 758.109375 1333.101562 756.890625 1334.617188 756.890625 Z M 1334.617188 756.890625 " fill-opacity="1" fill-rule="evenodd"/><path fill="#f7bd2e" d="M 1355.441406 756.890625 C 1356.929688 756.890625 1358.171875 758.109375 1358.171875 759.625 C 1358.171875 761.136719 1356.929688 762.355469 1355.441406 762.355469 C 1353.929688 762.355469 1352.710938 761.136719 1352.710938 759.625 C 1352.710938 758.109375 1353.929688 756.890625 1355.441406 756.890625 Z M 1355.441406 756.890625 " fill-opacity="1" fill-rule="evenodd"/><path fill="#f7bd2e" d="M 1376.246094 756.890625 C 1377.757812 756.890625 1378.976562 758.109375 1378.976562 759.625 C 1378.976562 761.136719 1377.757812 762.355469 1376.246094 762.355469 C 1374.734375 762.355469 1373.515625 761.136719 1373.515625 759.625 C 1373.515625 758.109375 1374.734375 756.890625 1376.246094 756.890625 Z M 1376.246094 756.890625 " fill-opacity="1" fill-rule="evenodd"/><path fill="#f7bd2e" d="M 1397.070312 756.890625 C 1398.582031 756.890625 1399.800781 758.109375 1399.800781 759.625 C 1399.800781 761.136719 1398.582031 762.355469 1397.070312 762.355469 C 1395.558594 762.355469 1394.339844 761.136719 1394.339844 759.625 C 1394.339844 758.109375 1395.558594 756.890625 1397.070312 756.890625 Z M 1397.070312 756.890625 " fill-opacity="1" fill-rule="evenodd"/><path fill="#f7bd2e" d="M 1417.894531 756.890625 C 1419.386719 756.890625 1420.625 758.109375 1420.625 759.625 C 1420.625 761.136719 1419.386719 762.355469 1417.894531 762.355469 C 1416.382812 762.355469 1415.164062 761.136719 1415.164062 759.625 C 1415.164062 758.109375 1416.382812 756.890625 1417.894531 756.890625 Z M 1417.894531 756.890625 " fill-opacity="1" fill-rule="evenodd"/><path fill="#f7bd2e" d="M 1438.699219 756.890625 C 1440.210938 756.890625 1441.429688 758.109375 1441.429688 759.625 C 1441.429688 761.136719 1440.210938 762.355469 1438.699219 762.355469 C 1437.1875 762.355469 1435.96875 761.136719 1435.96875 759.625 C 1435.96875 758.109375 1437.1875 756.890625 1438.699219 756.890625 Z M 1438.699219 756.890625 " fill-opacity="1" fill-rule="evenodd"/><path fill="#f7bd2e" d="M 1324.214844 767.210938 C 1325.703125 767.210938 1326.945312 768.433594 1326.945312 769.945312 C 1326.945312 771.457031 1325.703125 772.679688 1324.214844 772.679688 C 1322.703125 772.679688 1321.484375 771.457031 1321.484375 769.945312 C 1321.484375 768.433594 1322.703125 767.210938 1324.214844 767.210938 Z M 1324.214844 767.210938 " fill-opacity="1" fill-rule="evenodd"/><path fill="#f7bd2e" d="M 1345.019531 767.210938 C 1346.53125 767.210938 1347.75 768.433594 1347.75 769.945312 C 1347.75 771.457031 1346.53125 772.679688 1345.019531 772.679688 C 1343.507812 772.679688 1342.289062 771.457031 1342.289062 769.945312 C 1342.289062 768.433594 1343.507812 767.210938 1345.019531 767.210938 Z M 1345.019531 767.210938 " fill-opacity="1" fill-rule="evenodd"/><path fill="#f7bd2e" d="M 1365.84375 767.210938 C 1367.355469 767.210938 1368.574219 768.433594 1368.574219 769.945312 C 1368.574219 771.457031 1367.355469 772.679688 1365.84375 772.679688 C 1364.332031 772.679688 1363.113281 771.457031 1363.113281 769.945312 C 1363.113281 768.433594 1364.332031 767.210938 1365.84375 767.210938 Z M 1365.84375 767.210938 " fill-opacity="1" fill-rule="evenodd"/><path fill="#f7bd2e" d="M 1386.667969 767.210938 C 1388.160156 767.210938 1389.398438 768.433594 1389.398438 769.945312 C 1389.398438 771.457031 1388.160156 772.679688 1386.667969 772.679688 C 1385.15625 772.679688 1383.9375 771.457031 1383.9375 769.945312 C 1383.9375 768.433594 1385.15625 767.210938 1386.667969 767.210938 Z M 1386.667969 767.210938 " fill-opacity="1" fill-rule="evenodd"/><path fill="#f7bd2e" d="M 1407.472656 767.210938 C 1408.984375 767.210938 1410.203125 768.433594 1410.203125 769.945312 C 1410.203125 771.457031 1408.984375 772.679688 1407.472656 772.679688 C 1405.960938 772.679688 1404.742188 771.457031 1404.742188 769.945312 C 1404.742188 768.433594 1405.960938 767.210938 1407.472656 767.210938 Z M 1407.472656 767.210938 " fill-opacity="1" fill-rule="evenodd"/><path fill="#f7bd2e" d="M 1428.296875 767.210938 C 1429.808594 767.210938 1431.027344 768.433594 1431.027344 769.945312 C 1431.027344 771.457031 1429.808594 772.679688 1428.296875 772.679688 C 1426.785156 772.679688 1425.566406 771.457031 1425.566406 769.945312 C 1425.566406 768.433594 1426.785156 767.210938 1428.296875 767.210938 Z M 1428.296875 767.210938 " fill-opacity="1" fill-rule="evenodd"/><path fill="#f7bd2e" d="M 1313.789062 777.261719 C 1315.300781 777.261719 1316.519531 778.480469 1316.519531 779.996094 C 1316.519531 781.507812 1315.300781 782.726562 1313.789062 782.726562 C 1312.277344 782.726562 1311.058594 781.507812 1311.058594 779.996094 C 1311.058594 778.480469 1312.277344 777.261719 1313.789062 777.261719 Z M 1313.789062 777.261719 " fill-opacity="1" fill-rule="evenodd"/><path fill="#f7bd2e" d="M 1334.617188 777.261719 C 1336.128906 777.261719 1337.347656 778.480469 1337.347656 779.996094 C 1337.347656 781.507812 1336.128906 782.726562 1334.617188 782.726562 C 1333.105469 782.726562 1331.886719 781.507812 1331.886719 779.996094 C 1331.886719 778.480469 1333.101562 777.261719 1334.617188 777.261719 Z M 1334.617188 777.261719 " fill-opacity="1" fill-rule="evenodd"/><path fill="#f7bd2e" d="M 1355.441406 777.261719 C 1356.929688 777.261719 1358.171875 778.480469 1358.171875 779.996094 C 1358.171875 781.507812 1356.929688 782.726562 1355.441406 782.726562 C 1353.929688 782.726562 1352.710938 781.507812 1352.710938 779.996094 C 1352.710938 778.480469 1353.929688 777.261719 1355.441406 777.261719 Z M 1355.441406 777.261719 " fill-opacity="1" fill-rule="evenodd"/><path fill="#f7bd2e" d="M 1376.246094 777.261719 C 1377.757812 777.261719 1378.976562 778.480469 1378.976562 779.996094 C 1378.976562 781.507812 1377.757812 782.726562 1376.246094 782.726562 C 1374.734375 782.726562 1373.515625 781.507812 1373.515625 779.996094 C 1373.515625 778.480469 1374.734375 777.261719 1376.246094 777.261719 Z M 1376.246094 777.261719 " fill-opacity="1" fill-rule="evenodd"/><path fill="#f7bd2e" d="M 1397.070312 777.261719 C 1398.582031 777.261719 1399.800781 778.480469 1399.800781 779.996094 C 1399.800781 781.507812 1398.582031 782.726562 1397.070312 782.726562 C 1395.558594 782.726562 1394.339844 781.507812 1394.339844 779.996094 C 1394.339844 778.480469 1395.558594 777.261719 1397.070312 777.261719 Z M 1397.070312 777.261719 " fill-opacity="1" fill-rule="evenodd"/><path fill="#f7bd2e" d="M 1417.894531 777.261719 C 1419.386719 777.261719 1420.625 778.480469 1420.625 779.996094 C 1420.625 781.507812 1419.386719 782.726562 1417.894531 782.726562 C 1416.382812 782.726562 1415.164062 781.507812 1415.164062 779.996094 C 1415.164062 778.480469 1416.382812 777.261719 1417.894531 777.261719 Z M 1417.894531 777.261719 " fill-opacity="1" fill-rule="evenodd"/><path fill="#f7bd2e" d="M 1438.699219 777.261719 C 1440.210938 777.261719 1441.429688 778.480469 1441.429688 779.996094 C 1441.429688 781.507812 1440.210938 782.726562 1438.699219 782.726562 C 1437.1875 782.726562 1435.96875 781.507812 1435.96875 779.996094 C 1435.96875 778.480469 1437.1875 777.261719 1438.699219 777.261719 Z M 1438.699219 777.261719 " fill-opacity="1" fill-rule="evenodd"/><path fill="#f7bd2e" d="M 1303.386719 787.585938 C 1304.898438 787.585938 1306.117188 788.804688 1306.117188 790.316406 C 1306.117188 791.832031 1304.898438 793.050781 1303.386719 793.050781 C 1302.800781 793.050781 1302.238281 792.847656 1301.785156 792.53125 C 1302.167969 790.882812 1302.597656 789.230469 1303.050781 787.605469 C 1303.160156 787.585938 1303.273438 787.585938 1303.386719 787.585938 Z M 1303.386719 787.585938 " fill-opacity="1" fill-rule="evenodd"/><path fill="#f7bd2e" d="M 1324.214844 787.585938 C 1325.703125 787.585938 1326.945312 788.804688 1326.945312 790.316406 C 1326.945312 791.832031 1325.703125 793.050781 1324.214844 793.050781 C 1322.703125 793.050781 1321.484375 791.832031 1321.484375 790.316406 C 1321.484375 788.804688 1322.703125 787.585938 1324.214844 787.585938 Z M 1324.214844 787.585938 " fill-opacity="1" fill-rule="evenodd"/><path fill="#f7bd2e" d="M 1345.019531 787.585938 C 1346.53125 787.585938 1347.75 788.804688 1347.75 790.316406 C 1347.75 791.832031 1346.53125 793.050781 1345.019531 793.050781 C 1343.507812 793.050781 1342.289062 791.832031 1342.289062 790.316406 C 1342.289062 788.804688 1343.507812 787.585938 1345.019531 787.585938 Z M 1345.019531 787.585938 " fill-opacity="1" fill-rule="evenodd"/><path fill="#f7bd2e" d="M 1365.84375 787.585938 C 1367.355469 787.585938 1368.574219 788.804688 1368.574219 790.316406 C 1368.574219 791.832031 1367.355469 793.050781 1365.84375 793.050781 C 1364.332031 793.050781 1363.113281 791.832031 1363.113281 790.316406 C 1363.113281 788.804688 1364.332031 787.585938 1365.84375 787.585938 Z M 1365.84375 787.585938 " fill-opacity="1" fill-rule="evenodd"/><path fill="#f7bd2e" d="M 1386.667969 787.585938 C 1388.160156 787.585938 1389.398438 788.804688 1389.398438 790.316406 C 1389.398438 791.832031 1388.160156 793.050781 1386.667969 793.050781 C 1385.15625 793.050781 1383.9375 791.832031 1383.9375 790.316406 C 1383.9375 788.804688 1385.15625 787.585938 1386.667969 787.585938 Z M 1386.667969 787.585938 " fill-opacity="1" fill-rule="evenodd"/><path fill="#f7bd2e" d="M 1407.472656 787.585938 C 1408.984375 787.585938 1410.203125 788.804688 1410.203125 790.316406 C 1410.203125 791.832031 1408.984375 793.050781 1407.472656 793.050781 C 1405.960938 793.050781 1404.742188 791.832031 1404.742188 790.316406 C 1404.742188 788.804688 1405.960938 787.585938 1407.472656 787.585938 Z M 1407.472656 787.585938 " fill-opacity="1" fill-rule="evenodd"/><path fill="#f7bd2e" d="M 1428.296875 787.585938 C 1429.808594 787.585938 1431.027344 788.804688 1431.027344 790.316406 C 1431.027344 791.832031 1429.808594 793.050781 1428.296875 793.050781 C 1426.785156 793.050781 1425.566406 791.832031 1425.566406 790.316406 C 1425.566406 788.804688 1426.785156 787.585938 1428.296875 787.585938 Z M 1428.296875 787.585938 " fill-opacity="1" fill-rule="evenodd"/><path fill="#f7bd2e" d="M 1313.789062 797.632812 C 1315.300781 797.632812 1316.519531 798.855469 1316.519531 800.34375 C 1316.519531 801.855469 1315.300781 803.078125 1313.789062 803.078125 C 1312.277344 803.078125 1311.058594 801.855469 1311.058594 800.34375 C 1311.058594 798.855469 1312.277344 797.632812 1313.789062 797.632812 Z M 1313.789062 797.632812 " fill-opacity="1" fill-rule="evenodd"/><path fill="#f7bd2e" d="M 1334.617188 797.632812 C 1336.128906 797.632812 1337.347656 798.855469 1337.347656 800.34375 C 1337.347656 801.855469 1336.128906 803.078125 1334.617188 803.078125 C 1333.105469 803.078125 1331.886719 801.855469 1331.886719 800.34375 C 1331.886719 798.855469 1333.101562 797.632812 1334.617188 797.632812 Z M 1334.617188 797.632812 " fill-opacity="1" fill-rule="evenodd"/><path fill="#f7bd2e" d="M 1355.441406 797.632812 C 1356.929688 797.632812 1358.171875 798.855469 1358.171875 800.34375 C 1358.171875 801.855469 1356.929688 803.078125 1355.441406 803.078125 C 1353.929688 803.078125 1352.710938 801.855469 1352.710938 800.34375 C 1352.710938 798.855469 1353.929688 797.632812 1355.441406 797.632812 Z M 1355.441406 797.632812 " fill-opacity="1" fill-rule="evenodd"/><path fill="#f7bd2e" d="M 1376.246094 797.632812 C 1377.757812 797.632812 1378.976562 798.855469 1378.976562 800.34375 C 1378.976562 801.855469 1377.757812 803.078125 1376.246094 803.078125 C 1374.734375 803.078125 1373.515625 801.855469 1373.515625 800.34375 C 1373.515625 798.855469 1374.734375 797.632812 1376.246094 797.632812 Z M 1376.246094 797.632812 " fill-opacity="1" fill-rule="evenodd"/><path fill="#f7bd2e" d="M 1397.070312 797.632812 C 1398.582031 797.632812 1399.800781 798.855469 1399.800781 800.34375 C 1399.800781 801.855469 1398.582031 803.078125 1397.070312 803.078125 C 1395.558594 803.078125 1394.339844 801.855469 1394.339844 800.34375 C 1394.339844 798.855469 1395.558594 797.632812 1397.070312 797.632812 Z M 1397.070312 797.632812 " fill-opacity="1" fill-rule="evenodd"/><path fill="#f7bd2e" d="M 1417.894531 797.632812 C 1419.386719 797.632812 1420.625 798.855469 1420.625 800.34375 C 1420.625 801.855469 1419.386719 803.078125 1417.894531 803.078125 C 1416.382812 803.078125 1415.164062 801.855469 1415.164062 800.34375 C 1415.164062 798.855469 1416.382812 797.632812 1417.894531 797.632812 Z M 1417.894531 797.632812 " fill-opacity="1" fill-rule="evenodd"/><path fill="#f7bd2e" d="M 1438.699219 797.632812 C 1440.210938 797.632812 1441.429688 798.855469 1441.429688 800.34375 C 1441.429688 801.855469 1440.210938 803.078125 1438.699219 803.078125 C 1437.1875 803.078125 1435.96875 801.855469 1435.96875 800.34375 C 1435.96875 798.855469 1437.1875 797.632812 1438.699219 797.632812 Z M 1438.699219 797.632812 " fill-opacity="1" fill-rule="evenodd"/><path fill="#f7bd2e" d="M 1303.386719 807.957031 C 1304.898438 807.957031 1306.117188 809.175781 1306.117188 810.6875 C 1306.117188 812.179688 1304.898438 813.421875 1303.386719 813.421875 C 1301.875 813.421875 1300.65625 812.179688 1300.65625 810.6875 C 1300.65625 809.175781 1301.875 807.957031 1303.386719 807.957031 Z M 1303.386719 807.957031 " fill-opacity="1" fill-rule="evenodd"/><path fill="#f7bd2e" d="M 1324.214844 807.957031 C 1325.703125 807.957031 1326.945312 809.175781 1326.945312 810.6875 C 1326.945312 812.179688 1325.703125 813.421875 1324.214844 813.421875 C 1322.703125 813.421875 1321.484375 812.179688 1321.484375 810.6875 C 1321.484375 809.175781 1322.703125 807.957031 1324.214844 807.957031 Z M 1324.214844 807.957031 " fill-opacity="1" fill-rule="evenodd"/><path fill="#f7bd2e" d="M 1345.019531 807.957031 C 1346.53125 807.957031 1347.75 809.175781 1347.75 810.6875 C 1347.75 812.179688 1346.53125 813.421875 1345.019531 813.421875 C 1343.507812 813.421875 1342.289062 812.179688 1342.289062 810.6875 C 1342.289062 809.175781 1343.507812 807.957031 1345.019531 807.957031 Z M 1345.019531 807.957031 " fill-opacity="1" fill-rule="evenodd"/><path fill="#f7bd2e" d="M 1365.84375 807.957031 C 1367.355469 807.957031 1368.574219 809.175781 1368.574219 810.6875 C 1368.574219 812.179688 1367.355469 813.421875 1365.84375 813.421875 C 1364.332031 813.421875 1363.113281 812.179688 1363.113281 810.6875 C 1363.113281 809.175781 1364.332031 807.957031 1365.84375 807.957031 Z M 1365.84375 807.957031 " fill-opacity="1" fill-rule="evenodd"/><path fill="#f7bd2e" d="M 1386.667969 807.957031 C 1388.160156 807.957031 1389.398438 809.175781 1389.398438 810.6875 C 1389.398438 812.179688 1388.160156 813.421875 1386.667969 813.421875 C 1385.15625 813.421875 1383.9375 812.179688 1383.9375 810.6875 C 1383.9375 809.175781 1385.15625 807.957031 1386.667969 807.957031 Z M 1386.667969 807.957031 " fill-opacity="1" fill-rule="evenodd"/><path fill="#f7bd2e" d="M 1407.472656 807.957031 C 1408.984375 807.957031 1410.203125 809.175781 1410.203125 810.6875 C 1410.203125 812.179688 1408.984375 813.421875 1407.472656 813.421875 C 1405.960938 813.421875 1404.742188 812.179688 1404.742188 810.6875 C 1404.742188 809.175781 1405.960938 807.957031 1407.472656 807.957031 Z M 1407.472656 807.957031 " fill-opacity="1" fill-rule="evenodd"/><path fill="#f7bd2e" d="M 1428.296875 807.957031 C 1429.808594 807.957031 1431.027344 809.175781 1431.027344 810.6875 C 1431.027344 812.179688 1429.808594 813.421875 1428.296875 813.421875 C 1426.785156 813.421875 1425.566406 812.179688 1425.566406 810.6875 C 1425.566406 809.175781 1426.785156 807.957031 1428.296875 807.957031 Z M 1428.296875 807.957031 " fill-opacity="1" fill-rule="evenodd"/><g clip-path="url(#690e6a644d)"><path fill="#b164a5" d="M 1422.183594 648.074219 C 1463 648.074219 1499.957031 664.628906 1526.71875 691.414062 C 1553.457031 718.179688 1570.019531 755.175781 1570.019531 796.054688 C 1570.019531 836.910156 1553.457031 873.90625 1526.71875 900.667969 C 1499.957031 927.453125 1463 944.03125 1422.183594 944.03125 C 1381.367188 944.03125 1344.40625 927.453125 1317.648438 900.667969 C 1290.886719 873.90625 1274.347656 836.910156 1274.347656 796.054688 C 1274.347656 755.175781 1290.886719 718.179688 1317.648438 691.414062 C 1344.410156 664.628906 1381.367188 648.074219 1422.183594 648.074219 Z M 1524.035156 694.082031 C 1497.972656 667.996094 1461.964844 651.847656 1422.183594 651.847656 C 1382.402344 651.847656 1346.394531 667.992188 1320.308594 694.078125 C 1294.25 720.167969 1278.140625 756.234375 1278.140625 796.054688 C 1278.140625 835.871094 1294.25 871.917969 1320.3125 898.003906 C 1346.394531 924.089844 1382.40625 940.238281 1422.183594 940.238281 C 1461.964844 940.238281 1497.972656 924.089844 1524.035156 898.003906 C 1550.117188 871.917969 1566.226562 835.871094 1566.226562 796.054688 C 1566.226562 756.234375 1550.117188 720.167969 1524.035156 694.082031 Z M 1524.035156 694.082031 " fill-opacity="1" fill-rule="nonzero"/></g><path stroke-linecap="butt" transform="matrix(2.122696, -2.122696, 2.12132, 2.12132, 150.704413, 299.72101)" fill="none" stroke-linejoin="miter" d="M -0.000691236 0.0000844965 L 108.43121 0.0000844965 " stroke="#fdcf54" stroke-width="1" stroke-opacity="1" stroke-miterlimit="4"/><path stroke-linecap="butt" transform="matrix(2.122696, -2.122696, 2.12132, 2.12132, 569.363474, 202.53505)" fill="none" stroke-linejoin="miter" d="M -0.0000703746 -0.0000202442 L 108.431831 -0.0000202442 " stroke="#fdcf54" stroke-width="1" stroke-opacity="1" stroke-miterlimit="4"/><path stroke-linecap="butt" transform="matrix(2.122696, -2.122696, 2.12132, 2.12132, 488.92095, 960.076484)" fill="none" stroke-linejoin="miter" d="M -0.000168636 0.000604971 L 108.430813 -0.000315741 " stroke="#fdcf54" stroke-width="1" stroke-opacity="1" stroke-miterlimit="4"/><path stroke-linecap="butt" transform="matrix(2.122696, -2.122696, 2.12132, 2.12132, 1275.409046, 674.09617)" fill="none" stroke-linejoin="miter" d="M -0.0000885598 0.000611967 L 108.430893 -0.000308745 " stroke="#fdcf54" stroke-width="1" stroke-opacity="1" stroke-miterlimit="4"/><path stroke-linecap="butt" transform="matrix(2.122696, -2.122696, 2.12132, 2.12132, 999.432388, 202.53505)" fill="none" stroke-linejoin="miter" d="M 0.000258956 0.0003093 L 108.43124 -0.000611412 " stroke="#b2e6d7" stroke-width="1" stroke-opacity="1" stroke-miterlimit="4"/><path stroke-linecap="butt" transform="matrix(2.122696, -2.122696, 2.12132, 2.12132, 378.379938, 705.292305)" fill="none" stroke-linejoin="miter" d="M -0.000399579 -0.0000867158 L 108.431502 -0.0000867158 " stroke="#e462a2" stroke-width="1" stroke-opacity="1" stroke-miterlimit="4"/><path stroke-linecap="butt" transform="matrix(2.122696, -2.122696, 2.12132, 2.12132, 933.613375, 808.937499)" fill="none" stroke-linejoin="miter" d="M -0.0000223065 -0.0000219926 L 108.431879 -0.0000219926 " stroke="#e462a2" stroke-width="1" stroke-opacity="1" stroke-miterlimit="4"/></svg>