<svg xmlns="http://www.w3.org/2000/svg" xmlns:xlink="http://www.w3.org/1999/xlink" width="500" zoomAndPan="magnify" viewBox="0 0 375 374.999991" height="500" preserveAspectRatio="xMidYMid meet" version="1.0"><defs><g/><clipPath id="f240a7be31"><path d="M 9.636719 7.832031 L 365.363281 7.832031 L 365.363281 363.554688 L 9.636719 363.554688 Z M 9.636719 7.832031 " clip-rule="nonzero"/></clipPath></defs><g fill="#ffffff" fill-opacity="1"><g transform="translate(141.707354, 274.964785)"><g><path d="M 82.75 0 L 74.625 -26.6875 L 33.75 -26.6875 L 25.625 0 L 0 0 L 39.578125 -112.59375 L 68.640625 -112.59375 L 108.375 0 Z M 68.953125 -46.625 C 61.429688 -70.8125 57.195312 -84.488281 56.25 -87.65625 C 55.3125 -90.832031 54.632812 -93.34375 54.21875 -95.1875 C 52.53125 -88.632812 47.703125 -72.445312 39.734375 -46.625 Z M 68.953125 -46.625 "/></g></g></g><g clip-path="url(#f240a7be31)"><path fill="#000000" d="M 98.613281 7.789062 C 49.5 7.789062 9.683594 47.605469 9.683594 96.71875 L 9.683594 274.582031 C 9.683594 323.691406 49.5 363.511719 98.613281 363.511719 L 276.472656 363.511719 C 325.585938 363.511719 365.40625 323.691406 365.40625 274.582031 L 365.40625 96.71875 C 365.40625 47.605469 325.585938 7.789062 276.472656 7.789062 Z M 98.613281 7.789062 " fill-opacity="1" fill-rule="nonzero"/></g><g fill="#ffffff" fill-opacity="1"><g transform="translate(62.649082, 298.228729)"><g><path d="M 123.796875 -233.796875 C 140.015625 -233.796875 155.203125 -230.707031 169.359375 -224.53125 C 183.515625 -218.363281 195.859375 -210.015625 206.390625 -199.484375 C 216.921875 -188.960938 225.269531 -176.5625 231.4375 -162.28125 C 237.613281 -148 240.703125 -132.875 240.703125 -116.90625 L 240.703125 -22.515625 C 240.703125 -16.210938 238.519531 -10.882812 234.15625 -6.53125 C 229.800781 -2.175781 224.476562 0 218.1875 0 C 211.894531 0 206.507812 -2.175781 202.03125 -6.53125 C 197.550781 -10.882812 195.3125 -16.210938 195.3125 -22.515625 L 195.3125 -66.078125 L 123.796875 -66.078125 L 123.796875 -66.4375 C 123.066406 -66.195312 121.738281 -66.078125 119.8125 -66.078125 C 111.820312 -66.078125 104.195312 -64.863281 96.9375 -62.4375 C 89.675781 -60.019531 83.078125 -56.632812 77.140625 -52.28125 C 71.210938 -47.925781 66.070312 -42.722656 61.71875 -36.671875 C 57.363281 -30.617188 54.097656 -23.960938 51.921875 -16.703125 C 51.671875 -16.460938 51.546875 -16.21875 51.546875 -15.96875 C 51.546875 -15.726562 51.425781 -15.488281 51.1875 -15.25 C 49.738281 -10.644531 47.078125 -6.953125 43.203125 -4.171875 C 39.328125 -1.390625 34.847656 0 29.765625 0 C 23.472656 0 18.148438 -2.175781 13.796875 -6.53125 C 9.441406 -10.882812 7.265625 -16.210938 7.265625 -22.515625 L 7.265625 -116.90625 C 7.265625 -131.1875 9.679688 -144.617188 14.515625 -157.203125 C 20.328125 -172.691406 29.039062 -186.488281 40.65625 -198.59375 C 51.550781 -209.476562 64.078125 -218.066406 78.234375 -224.359375 C 92.390625 -230.648438 107.578125 -233.796875 123.796875 -233.796875 Z M 195.3125 -111.453125 L 195.3125 -116.90625 C 195.3125 -129.488281 192.289062 -141.101562 186.25 -151.75 C 186.25 -151.988281 186.1875 -152.171875 186.0625 -152.296875 C 185.9375 -152.421875 185.875 -152.601562 185.875 -152.84375 C 184.90625 -154.289062 183.9375 -155.738281 182.96875 -157.1875 C 182.007812 -158.644531 181.046875 -159.976562 180.078125 -161.1875 C 173.535156 -169.664062 165.421875 -176.320312 155.734375 -181.15625 C 146.054688 -186 135.410156 -188.421875 123.796875 -188.421875 C 112.179688 -188.421875 101.472656 -185.816406 91.671875 -180.609375 C 81.867188 -175.410156 73.695312 -168.578125 67.15625 -160.109375 C 62.5625 -154.054688 58.992188 -147.398438 56.453125 -140.140625 C 53.910156 -132.878906 52.640625 -125.132812 52.640625 -116.90625 L 52.640625 -90.03125 C 62.078125 -96.8125 72.484375 -102.078125 83.859375 -105.828125 C 95.234375 -109.578125 107.21875 -111.453125 119.8125 -111.453125 Z M 195.3125 -111.453125 "/></g></g></g></svg>