<svg xmlns="http://www.w3.org/2000/svg" xmlns:xlink="http://www.w3.org/1999/xlink" width="3400" zoomAndPan="magnify" viewBox="0 0 2550 749.999995" height="1000" preserveAspectRatio="xMidYMid meet" version="1.0"><defs><g/></defs><g fill="#ffffff" fill-opacity="1"><g transform="translate(298.892836, 527.863568)"><g><path d="M 140.296875 0 L 126.515625 -45.25 L 57.21875 -45.25 L 43.421875 0 L 0 0 L 67.09375 -190.875 L 116.375 -190.875 L 183.734375 0 Z M 116.890625 -79.0625 C 104.148438 -120.0625 96.976562 -143.25 95.375 -148.625 C 93.769531 -154 92.617188 -158.242188 91.921875 -161.359375 C 89.066406 -150.265625 80.878906 -122.832031 67.359375 -79.0625 Z M 116.890625 -79.0625 "/></g></g></g><g fill="#000f14" fill-opacity="1"><g transform="translate(133.759236, 614.401843)"><g><path d="M 231.640625 -437.46875 C 261.984375 -437.46875 290.398438 -431.691406 316.890625 -420.140625 C 343.378906 -408.597656 366.472656 -392.972656 386.171875 -373.265625 C 405.878906 -353.566406 421.503906 -330.359375 433.046875 -303.640625 C 444.597656 -276.921875 450.375 -248.617188 450.375 -218.734375 L 450.375 -42.109375 C 450.375 -30.335938 446.296875 -20.375 438.140625 -12.21875 C 429.992188 -4.070312 420.03125 0 408.25 0 C 396.476562 0 386.40625 -4.070312 378.03125 -12.21875 C 369.65625 -20.375 365.46875 -30.335938 365.46875 -42.109375 L 365.46875 -123.625 L 231.640625 -123.625 L 231.640625 -124.3125 C 230.285156 -123.851562 227.796875 -123.625 224.171875 -123.625 C 209.222656 -123.625 194.957031 -121.359375 181.375 -116.828125 C 167.789062 -112.304688 155.445312 -105.96875 144.34375 -97.8125 C 133.25 -89.664062 123.625 -79.929688 115.46875 -68.609375 C 107.320312 -57.285156 101.210938 -44.832031 97.140625 -31.25 C 96.679688 -30.789062 96.453125 -30.332031 96.453125 -29.875 C 96.453125 -29.425781 96.226562 -28.976562 95.78125 -28.53125 C 93.0625 -19.925781 88.078125 -13.019531 80.828125 -7.8125 C 73.585938 -2.601562 65.210938 0 55.703125 0 C 43.929688 0 33.96875 -4.070312 25.8125 -12.21875 C 17.664062 -20.375 13.59375 -30.335938 13.59375 -42.109375 L 13.59375 -218.734375 C 13.59375 -245.453125 18.117188 -270.585938 27.171875 -294.140625 C 38.035156 -323.117188 54.335938 -348.929688 76.078125 -371.578125 C 96.460938 -391.953125 119.898438 -408.023438 146.390625 -419.796875 C 172.878906 -431.578125 201.296875 -437.46875 231.640625 -437.46875 Z M 365.46875 -208.546875 L 365.46875 -218.734375 C 365.46875 -242.285156 359.804688 -264.023438 348.484375 -283.953125 C 348.484375 -284.398438 348.367188 -284.738281 348.140625 -284.96875 C 347.910156 -285.195312 347.796875 -285.535156 347.796875 -285.984375 C 345.984375 -288.703125 344.171875 -291.421875 342.359375 -294.140625 C 340.554688 -296.859375 338.75 -299.347656 336.9375 -301.609375 C 324.707031 -317.460938 309.535156 -329.914062 291.421875 -338.96875 C 273.304688 -348.03125 253.378906 -352.5625 231.640625 -352.5625 C 209.898438 -352.5625 189.859375 -347.691406 171.515625 -337.953125 C 153.179688 -328.210938 137.898438 -315.414062 125.671875 -299.5625 C 117.066406 -288.25 110.382812 -275.796875 105.625 -262.203125 C 100.875 -248.617188 98.5 -234.128906 98.5 -218.734375 L 98.5 -168.46875 C 116.15625 -181.144531 135.625 -190.992188 156.90625 -198.015625 C 178.195312 -205.035156 200.617188 -208.546875 224.171875 -208.546875 Z M 365.46875 -208.546875 "/></g></g></g><g fill="#000f14" fill-opacity="1"><g transform="translate(745.126116, 614.401843)"><g><path d="M 425.921875 -437.46875 C 437.691406 -437.46875 447.648438 -433.273438 455.796875 -424.890625 C 463.953125 -416.515625 468.03125 -406.441406 468.03125 -394.671875 L 468.03125 -218.046875 C 468.03125 -188.160156 462.253906 -159.972656 450.703125 -133.484375 C 439.160156 -106.992188 423.539062 -83.894531 403.84375 -64.1875 C 384.144531 -44.488281 361.046875 -28.863281 334.546875 -17.3125 C 308.054688 -5.769531 279.867188 0 249.984375 0 C 219.640625 0 191.21875 -5.769531 164.71875 -17.3125 C 138.226562 -28.863281 115.132812 -44.488281 95.4375 -64.1875 C 75.738281 -83.894531 60.113281 -106.992188 48.5625 -133.484375 C 37.019531 -159.972656 31.25 -188.160156 31.25 -218.046875 L 31.25 -394.671875 C 31.25 -406.441406 35.4375 -416.515625 43.8125 -424.890625 C 52.1875 -433.273438 62.265625 -437.46875 74.046875 -437.46875 C 85.816406 -437.46875 95.773438 -433.273438 103.921875 -424.890625 C 112.078125 -416.515625 116.15625 -406.441406 116.15625 -394.671875 L 116.15625 -218.046875 C 116.15625 -199.484375 119.664062 -182.160156 126.6875 -166.078125 C 133.707031 -150.003906 143.21875 -135.851562 155.21875 -123.625 C 167.21875 -111.40625 181.367188 -101.785156 197.671875 -94.765625 C 213.972656 -87.742188 231.410156 -84.234375 249.984375 -84.234375 C 268.097656 -84.234375 285.304688 -87.742188 301.609375 -94.765625 C 317.910156 -101.785156 332.175781 -111.40625 344.40625 -123.625 C 356.632812 -135.851562 366.253906 -150.003906 373.265625 -166.078125 C 380.285156 -182.160156 383.796875 -199.484375 383.796875 -218.046875 L 383.125 -218.046875 L 383.125 -394.671875 C 383.125 -406.441406 387.3125 -416.515625 395.6875 -424.890625 C 404.0625 -433.273438 414.140625 -437.46875 425.921875 -437.46875 Z M 425.921875 -437.46875 "/></g></g></g><g fill="#000f14" fill-opacity="1"><g transform="translate(1357.172324, 614.401843)"><g><path d="M 458.53125 -214.65625 C 458.53125 -211.03125 458.414062 -207.519531 458.1875 -204.125 C 457.957031 -200.726562 457.617188 -197.21875 457.171875 -193.59375 C 454.898438 -175.03125 450.367188 -157.144531 443.578125 -139.9375 C 436.785156 -122.726562 428.066406 -106.648438 417.421875 -91.703125 C 406.785156 -76.753906 394.332031 -63.28125 380.0625 -51.28125 C 365.800781 -39.28125 350.289062 -29.207031 333.53125 -21.0625 C 298.664062 -4.757812 261.984375 2.035156 223.484375 -0.671875 C 184.992188 -3.390625 149.671875 -15.617188 117.515625 -37.359375 C 86.722656 -58.191406 62.832031 -85.25 45.84375 -118.53125 C 28.863281 -151.820312 20.828125 -187.035156 21.734375 -224.171875 C 22.640625 -247.265625 26.941406 -269.679688 34.640625 -291.421875 C 42.335938 -313.160156 53.207031 -333.3125 67.25 -351.875 C 84.914062 -374.96875 106.425781 -393.644531 131.78125 -407.90625 C 157.144531 -422.175781 184.09375 -431.125 212.625 -434.75 C 241.15625 -438.375 269.457031 -436.335938 297.53125 -428.640625 C 325.613281 -420.941406 350.972656 -408.257812 373.609375 -390.59375 L 374.296875 -390.59375 L 374.296875 -502.6875 C 374.296875 -514.457031 378.367188 -524.414062 386.515625 -532.5625 C 394.671875 -540.71875 404.632812 -544.796875 416.40625 -544.796875 C 428.1875 -544.796875 438.148438 -540.71875 446.296875 -532.5625 C 454.453125 -524.414062 458.53125 -514.457031 458.53125 -502.6875 Z M 341 -129.75 C 356.851562 -148.3125 367.15625 -169.476562 371.90625 -193.25 C 376.664062 -217.03125 374.972656 -240.46875 366.828125 -263.5625 C 360.484375 -281.226562 350.859375 -296.851562 337.953125 -310.4375 C 325.046875 -324.019531 310.210938 -334.4375 293.453125 -341.6875 C 276.242188 -349.382812 258.242188 -353.234375 239.453125 -353.234375 C 220.660156 -353.234375 202.882812 -349.382812 186.125 -341.6875 C 178.882812 -338.0625 171.976562 -334.210938 165.40625 -330.140625 C 158.84375 -326.066406 152.617188 -321.3125 146.734375 -315.875 C 134.953125 -304.101562 125.4375 -290.628906 118.1875 -275.453125 C 110.945312 -260.285156 106.875 -244.097656 105.96875 -226.890625 C 105.0625 -211.941406 106.53125 -197.109375 110.375 -182.390625 C 114.226562 -167.671875 120.6875 -154.195312 129.75 -141.96875 C 138.800781 -128.84375 149.78125 -117.632812 162.6875 -108.34375 C 175.59375 -99.0625 189.519531 -92.382812 204.46875 -88.3125 C 218.957031 -84.6875 233.898438 -83.328125 249.296875 -84.234375 C 264.691406 -85.140625 279.410156 -88.765625 293.453125 -95.109375 C 289.828125 -93.296875 286.203125 -91.59375 282.578125 -90 C 278.960938 -88.414062 275.117188 -86.945312 271.046875 -85.59375 C 279.648438 -88.757812 288.476562 -92.378906 297.53125 -96.453125 C 314.738281 -105.054688 329.226562 -116.15625 341 -129.75 Z M 341 -129.75 "/></g></g></g><g fill="#000f14" fill-opacity="1"><g transform="translate(1999.786798, 614.401843)"><g><path d="M 231.640625 -437.46875 C 261.984375 -437.46875 290.398438 -431.691406 316.890625 -420.140625 C 343.378906 -408.597656 366.472656 -392.972656 386.171875 -373.265625 C 405.878906 -353.566406 421.503906 -330.359375 433.046875 -303.640625 C 444.597656 -276.921875 450.375 -248.617188 450.375 -218.734375 L 450.375 -42.109375 C 450.375 -30.335938 446.296875 -20.375 438.140625 -12.21875 C 429.992188 -4.070312 420.03125 0 408.25 0 C 396.476562 0 386.40625 -4.070312 378.03125 -12.21875 C 369.65625 -20.375 365.46875 -30.335938 365.46875 -42.109375 L 365.46875 -123.625 L 231.640625 -123.625 L 231.640625 -124.3125 C 230.285156 -123.851562 227.796875 -123.625 224.171875 -123.625 C 209.222656 -123.625 194.957031 -121.359375 181.375 -116.828125 C 167.789062 -112.304688 155.445312 -105.96875 144.34375 -97.8125 C 133.25 -89.664062 123.625 -79.929688 115.46875 -68.609375 C 107.320312 -57.285156 101.210938 -44.832031 97.140625 -31.25 C 96.679688 -30.789062 96.453125 -30.332031 96.453125 -29.875 C 96.453125 -29.425781 96.226562 -28.976562 95.78125 -28.53125 C 93.0625 -19.925781 88.078125 -13.019531 80.828125 -7.8125 C 73.585938 -2.601562 65.210938 0 55.703125 0 C 43.929688 0 33.96875 -4.070312 25.8125 -12.21875 C 17.664062 -20.375 13.59375 -30.335938 13.59375 -42.109375 L 13.59375 -218.734375 C 13.59375 -245.453125 18.117188 -270.585938 27.171875 -294.140625 C 38.035156 -323.117188 54.335938 -348.929688 76.078125 -371.578125 C 96.460938 -391.953125 119.898438 -408.023438 146.390625 -419.796875 C 172.878906 -431.578125 201.296875 -437.46875 231.640625 -437.46875 Z M 365.46875 -208.546875 L 365.46875 -218.734375 C 365.46875 -242.285156 359.804688 -264.023438 348.484375 -283.953125 C 348.484375 -284.398438 348.367188 -284.738281 348.140625 -284.96875 C 347.910156 -285.195312 347.796875 -285.535156 347.796875 -285.984375 C 345.984375 -288.703125 344.171875 -291.421875 342.359375 -294.140625 C 340.554688 -296.859375 338.75 -299.347656 336.9375 -301.609375 C 324.707031 -317.460938 309.535156 -329.914062 291.421875 -338.96875 C 273.304688 -348.03125 253.378906 -352.5625 231.640625 -352.5625 C 209.898438 -352.5625 189.859375 -347.691406 171.515625 -337.953125 C 153.179688 -328.210938 137.898438 -315.414062 125.671875 -299.5625 C 117.066406 -288.25 110.382812 -275.796875 105.625 -262.203125 C 100.875 -248.617188 98.5 -234.128906 98.5 -218.734375 L 98.5 -168.46875 C 116.15625 -181.144531 135.625 -190.992188 156.90625 -198.015625 C 178.195312 -205.035156 200.617188 -208.546875 224.171875 -208.546875 Z M 365.46875 -208.546875 "/></g></g></g></svg>