<svg xmlns="http://www.w3.org/2000/svg" xmlns:xlink="http://www.w3.org/1999/xlink" width="3400" zoomAndPan="magnify" viewBox="0 0 2550 749.999995" height="1000" preserveAspectRatio="xMidYMid meet" version="1.0"><defs><g/><clipPath id="129aac61fc"><path d="M 75 75 L 678.046875 75 L 678.046875 678 L 75 678 Z M 75 75 " clip-rule="nonzero"/></clipPath></defs><g fill="#ffffff" fill-opacity="1"><g transform="translate(298.892807, 527.863568)"><g><path d="M 140.296875 0 L 126.515625 -45.25 L 57.21875 -45.25 L 43.421875 0 L 0 0 L 67.09375 -190.875 L 116.375 -190.875 L 183.734375 0 Z M 116.890625 -79.0625 C 104.148438 -120.0625 96.976562 -143.25 95.375 -148.625 C 93.769531 -154 92.617188 -158.242188 91.921875 -161.359375 C 89.066406 -150.265625 80.878906 -122.832031 67.359375 -79.0625 Z M 116.890625 -79.0625 "/></g></g></g><g clip-path="url(#129aac61fc)"><path fill="#000000" d="M 225.835938 74.925781 C 142.578125 74.925781 75.074219 142.429688 75.074219 225.6875 L 75.074219 527.210938 C 75.074219 610.46875 142.578125 677.972656 225.835938 677.972656 L 527.359375 677.972656 C 610.617188 677.972656 678.121094 610.46875 678.121094 527.210938 L 678.121094 225.6875 C 678.121094 142.429688 610.617188 74.925781 527.359375 74.925781 Z M 225.835938 74.925781 " fill-opacity="1" fill-rule="nonzero"/></g><g fill="#ffffff" fill-opacity="1"><g transform="translate(152.80654, 607.735576)"><g><path d="M 415.4375 -194.484375 C 415.4375 -191.203125 415.332031 -188.019531 415.125 -184.9375 C 414.925781 -181.863281 414.617188 -178.6875 414.203125 -175.40625 C 412.160156 -158.582031 408.0625 -142.375 401.90625 -126.78125 C 395.75 -111.195312 387.847656 -96.632812 378.203125 -83.09375 C 368.554688 -69.550781 357.269531 -57.34375 344.34375 -46.46875 C 331.425781 -35.59375 317.375 -26.460938 302.1875 -19.078125 C 270.59375 -4.304688 237.359375 1.847656 202.484375 -0.609375 C 167.609375 -3.078125 135.601562 -14.15625 106.46875 -33.84375 C 78.570312 -52.71875 56.929688 -77.234375 41.546875 -107.390625 C 26.160156 -137.554688 18.875 -169.460938 19.6875 -203.109375 C 20.507812 -224.035156 24.410156 -244.34375 31.390625 -264.03125 C 38.367188 -283.726562 48.21875 -301.988281 60.9375 -318.8125 C 76.9375 -339.738281 96.421875 -356.660156 119.390625 -369.578125 C 142.367188 -382.503906 166.785156 -390.613281 192.640625 -393.90625 C 218.492188 -397.1875 244.140625 -395.335938 269.578125 -388.359375 C 295.015625 -381.378906 317.988281 -369.890625 338.5 -353.890625 L 339.125 -353.890625 L 339.125 -455.453125 C 339.125 -466.117188 342.816406 -475.144531 350.203125 -482.53125 C 357.585938 -489.914062 366.613281 -493.609375 377.28125 -493.609375 C 387.945312 -493.609375 396.972656 -489.914062 404.359375 -482.53125 C 411.742188 -475.144531 415.4375 -466.117188 415.4375 -455.453125 Z M 308.96875 -117.546875 C 323.320312 -134.367188 332.65625 -153.550781 336.96875 -175.09375 C 341.28125 -196.632812 339.742188 -217.867188 332.359375 -238.796875 C 326.609375 -254.804688 317.882812 -268.960938 306.1875 -281.265625 C 294.5 -293.578125 281.0625 -303.015625 265.875 -309.578125 C 250.289062 -316.554688 233.984375 -320.046875 216.953125 -320.046875 C 199.921875 -320.046875 183.816406 -316.554688 168.640625 -309.578125 C 162.078125 -306.296875 155.816406 -302.804688 149.859375 -299.109375 C 143.910156 -295.421875 138.269531 -291.113281 132.9375 -286.1875 C 122.269531 -275.519531 113.65625 -263.3125 107.09375 -249.5625 C 100.53125 -235.820312 96.835938 -221.15625 96.015625 -205.5625 C 95.191406 -192.019531 96.523438 -178.582031 100.015625 -165.25 C 103.503906 -151.914062 109.347656 -139.710938 117.546875 -128.640625 C 125.753906 -116.734375 135.707031 -106.570312 147.40625 -98.15625 C 159.101562 -89.75 171.71875 -83.703125 185.25 -80.015625 C 198.382812 -76.734375 211.925781 -75.5 225.875 -76.3125 C 239.820312 -77.132812 253.15625 -80.421875 265.875 -86.171875 C 262.59375 -84.523438 259.3125 -82.984375 256.03125 -81.546875 C 252.75 -80.109375 249.265625 -78.773438 245.578125 -77.546875 C 253.367188 -80.421875 261.367188 -83.703125 269.578125 -87.390625 C 285.171875 -95.191406 298.300781 -105.242188 308.96875 -117.546875 Z M 308.96875 -117.546875 "/></g></g></g><g fill="#000f14" fill-opacity="1"><g transform="translate(820.340777, 498.382651)"><g><path d="M 167.40625 -316.15625 C 189.332031 -316.15625 209.867188 -311.976562 229.015625 -303.625 C 248.160156 -295.28125 264.847656 -283.988281 279.078125 -269.75 C 293.316406 -255.519531 304.609375 -238.75 312.953125 -219.4375 C 321.304688 -200.132812 325.484375 -179.679688 325.484375 -158.078125 L 325.484375 -30.4375 C 325.484375 -21.925781 322.535156 -14.722656 316.640625 -8.828125 C 310.753906 -2.941406 303.554688 0 295.046875 0 C 286.535156 0 279.25 -2.941406 273.1875 -8.828125 C 267.132812 -14.722656 264.109375 -21.925781 264.109375 -30.4375 L 264.109375 -89.34375 L 167.40625 -89.34375 L 167.40625 -89.84375 C 166.425781 -89.507812 164.625 -89.34375 162 -89.34375 C 151.195312 -89.34375 140.882812 -87.707031 131.0625 -84.4375 C 121.25 -81.164062 112.332031 -76.582031 104.3125 -70.6875 C 96.300781 -64.800781 89.347656 -57.765625 83.453125 -49.578125 C 77.566406 -41.398438 73.148438 -32.398438 70.203125 -22.578125 C 69.867188 -22.253906 69.703125 -21.925781 69.703125 -21.59375 C 69.703125 -21.269531 69.539062 -20.945312 69.21875 -20.625 C 67.257812 -14.40625 63.660156 -9.410156 58.421875 -5.640625 C 53.179688 -1.878906 47.125 0 40.25 0 C 31.738281 0 24.535156 -2.941406 18.640625 -8.828125 C 12.753906 -14.722656 9.8125 -21.925781 9.8125 -30.4375 L 9.8125 -158.078125 C 9.8125 -177.390625 13.085938 -195.550781 19.640625 -212.5625 C 27.492188 -233.507812 39.273438 -252.164062 54.984375 -268.53125 C 69.710938 -283.257812 86.648438 -294.878906 105.796875 -303.390625 C 124.941406 -311.898438 145.476562 -316.15625 167.40625 -316.15625 Z M 264.109375 -150.71875 L 264.109375 -158.078125 C 264.109375 -175.097656 260.019531 -190.804688 251.84375 -205.203125 C 251.84375 -205.535156 251.757812 -205.78125 251.59375 -205.9375 C 251.4375 -206.101562 251.359375 -206.347656 251.359375 -206.671875 C 250.046875 -208.640625 248.734375 -210.601562 247.421875 -212.5625 C 246.117188 -214.53125 244.8125 -216.332031 243.5 -217.96875 C 234.664062 -229.425781 223.703125 -238.425781 210.609375 -244.96875 C 197.515625 -251.507812 183.113281 -254.78125 167.40625 -254.78125 C 151.695312 -254.78125 137.210938 -251.257812 123.953125 -244.21875 C 110.703125 -237.1875 99.660156 -227.945312 90.828125 -216.5 C 84.609375 -208.3125 79.78125 -199.304688 76.34375 -189.484375 C 72.90625 -179.671875 71.1875 -169.203125 71.1875 -158.078125 L 71.1875 -121.75 C 83.945312 -130.914062 98.015625 -138.035156 113.390625 -143.109375 C 128.773438 -148.179688 144.976562 -150.71875 162 -150.71875 Z M 264.109375 -150.71875 "/></g></g></g><g fill="#000f14" fill-opacity="1"><g transform="translate(1262.14678, 498.382651)"><g><path d="M 307.8125 -316.15625 C 316.320312 -316.15625 323.519531 -313.125 329.40625 -307.0625 C 335.300781 -301.007812 338.25 -293.726562 338.25 -285.21875 L 338.25 -157.59375 C 338.25 -135.988281 334.070312 -115.613281 325.71875 -96.46875 C 317.375 -77.320312 306.082031 -60.628906 291.84375 -46.390625 C 277.613281 -32.148438 260.925781 -20.859375 241.78125 -12.515625 C 222.632812 -4.171875 202.257812 0 180.65625 0 C 158.726562 0 138.191406 -4.171875 119.046875 -12.515625 C 99.898438 -20.859375 83.207031 -32.148438 68.96875 -46.390625 C 54.738281 -60.628906 43.445312 -77.320312 35.09375 -96.46875 C 26.75 -115.613281 22.578125 -135.988281 22.578125 -157.59375 L 22.578125 -285.21875 C 22.578125 -293.726562 25.601562 -301.007812 31.65625 -307.0625 C 37.71875 -313.125 45.003906 -316.15625 53.515625 -316.15625 C 62.023438 -316.15625 69.222656 -313.125 75.109375 -307.0625 C 81.003906 -301.007812 83.953125 -293.726562 83.953125 -285.21875 L 83.953125 -157.59375 C 83.953125 -144.164062 86.488281 -131.644531 91.5625 -120.03125 C 96.632812 -108.414062 103.503906 -98.1875 112.171875 -89.34375 C 120.847656 -80.507812 131.078125 -73.554688 142.859375 -68.484375 C 154.640625 -63.410156 167.238281 -60.875 180.65625 -60.875 C 193.75 -60.875 206.1875 -63.410156 217.96875 -68.484375 C 229.75 -73.554688 240.054688 -80.507812 248.890625 -89.34375 C 257.734375 -98.1875 264.691406 -108.414062 269.765625 -120.03125 C 274.835938 -131.644531 277.375 -144.164062 277.375 -157.59375 L 276.875 -157.59375 L 276.875 -285.21875 C 276.875 -293.726562 279.898438 -301.007812 285.953125 -307.0625 C 292.015625 -313.125 299.300781 -316.15625 307.8125 -316.15625 Z M 307.8125 -316.15625 "/></g></g></g><g fill="#000f14" fill-opacity="1"><g transform="translate(1704.443669, 498.382651)"><g><path d="M 331.375 -155.125 C 331.375 -152.507812 331.289062 -149.972656 331.125 -147.515625 C 330.957031 -145.066406 330.710938 -142.53125 330.390625 -139.90625 C 328.753906 -126.488281 325.476562 -113.5625 320.5625 -101.125 C 315.65625 -88.6875 309.359375 -77.066406 301.671875 -66.265625 C 293.984375 -55.472656 284.984375 -45.738281 274.671875 -37.0625 C 264.359375 -28.394531 253.148438 -21.113281 241.046875 -15.21875 C 215.835938 -3.4375 189.320312 1.472656 161.5 -0.484375 C 133.6875 -2.453125 108.160156 -11.289062 84.921875 -27 C 62.671875 -42.050781 45.410156 -61.601562 33.140625 -85.65625 C 20.867188 -109.71875 15.054688 -135.164062 15.703125 -162 C 16.359375 -178.695312 19.46875 -194.898438 25.03125 -210.609375 C 30.59375 -226.316406 38.445312 -240.878906 48.59375 -254.296875 C 61.363281 -270.984375 76.910156 -284.484375 95.234375 -294.796875 C 113.566406 -305.109375 133.039062 -311.570312 153.65625 -314.1875 C 174.28125 -316.8125 194.738281 -315.335938 215.03125 -309.765625 C 235.320312 -304.203125 253.644531 -295.039062 270 -282.28125 L 270.5 -282.28125 L 270.5 -363.28125 C 270.5 -371.789062 273.441406 -378.988281 279.328125 -384.875 C 285.222656 -390.769531 292.425781 -393.71875 300.9375 -393.71875 C 309.445312 -393.71875 316.644531 -390.769531 322.53125 -384.875 C 328.425781 -378.988281 331.375 -371.789062 331.375 -363.28125 Z M 246.4375 -93.765625 C 257.894531 -107.179688 265.34375 -122.476562 268.78125 -139.65625 C 272.21875 -156.84375 270.988281 -173.785156 265.09375 -190.484375 C 260.507812 -203.242188 253.554688 -214.53125 244.234375 -224.34375 C 234.910156 -234.164062 224.191406 -241.695312 212.078125 -246.9375 C 199.640625 -252.5 186.628906 -255.28125 173.046875 -255.28125 C 159.460938 -255.28125 146.617188 -252.5 134.515625 -246.9375 C 129.273438 -244.3125 124.28125 -241.523438 119.53125 -238.578125 C 114.789062 -235.640625 110.296875 -232.207031 106.046875 -228.28125 C 97.535156 -219.769531 90.660156 -210.03125 85.421875 -199.0625 C 80.179688 -188.101562 77.234375 -176.40625 76.578125 -163.96875 C 75.929688 -153.164062 77 -142.445312 79.78125 -131.8125 C 82.5625 -121.175781 87.222656 -111.441406 93.765625 -102.609375 C 100.304688 -93.109375 108.238281 -85.003906 117.5625 -78.296875 C 126.894531 -71.585938 136.960938 -66.757812 147.765625 -63.8125 C 158.242188 -61.195312 169.046875 -60.21875 180.171875 -60.875 C 191.296875 -61.53125 201.929688 -64.148438 212.078125 -68.734375 C 209.460938 -67.421875 206.84375 -66.191406 204.21875 -65.046875 C 201.601562 -63.898438 198.820312 -62.835938 195.875 -61.859375 C 202.09375 -64.148438 208.476562 -66.765625 215.03125 -69.703125 C 227.457031 -75.921875 237.925781 -83.941406 246.4375 -93.765625 Z M 246.4375 -93.765625 "/></g></g></g><g fill="#000f14" fill-opacity="1"><g transform="translate(2168.830362, 498.382651)"><g><path d="M 167.40625 -316.15625 C 189.332031 -316.15625 209.867188 -311.976562 229.015625 -303.625 C 248.160156 -295.28125 264.847656 -283.988281 279.078125 -269.75 C 293.316406 -255.519531 304.609375 -238.75 312.953125 -219.4375 C 321.304688 -200.132812 325.484375 -179.679688 325.484375 -158.078125 L 325.484375 -30.4375 C 325.484375 -21.925781 322.535156 -14.722656 316.640625 -8.828125 C 310.753906 -2.941406 303.554688 0 295.046875 0 C 286.535156 0 279.25 -2.941406 273.1875 -8.828125 C 267.132812 -14.722656 264.109375 -21.925781 264.109375 -30.4375 L 264.109375 -89.34375 L 167.40625 -89.34375 L 167.40625 -89.84375 C 166.425781 -89.507812 164.625 -89.34375 162 -89.34375 C 151.195312 -89.34375 140.882812 -87.707031 131.0625 -84.4375 C 121.25 -81.164062 112.332031 -76.582031 104.3125 -70.6875 C 96.300781 -64.800781 89.347656 -57.765625 83.453125 -49.578125 C 77.566406 -41.398438 73.148438 -32.398438 70.203125 -22.578125 C 69.867188 -22.253906 69.703125 -21.925781 69.703125 -21.59375 C 69.703125 -21.269531 69.539062 -20.945312 69.21875 -20.625 C 67.257812 -14.40625 63.660156 -9.410156 58.421875 -5.640625 C 53.179688 -1.878906 47.125 0 40.25 0 C 31.738281 0 24.535156 -2.941406 18.640625 -8.828125 C 12.753906 -14.722656 9.8125 -21.925781 9.8125 -30.4375 L 9.8125 -158.078125 C 9.8125 -177.390625 13.085938 -195.550781 19.640625 -212.5625 C 27.492188 -233.507812 39.273438 -252.164062 54.984375 -268.53125 C 69.710938 -283.257812 86.648438 -294.878906 105.796875 -303.390625 C 124.941406 -311.898438 145.476562 -316.15625 167.40625 -316.15625 Z M 264.109375 -150.71875 L 264.109375 -158.078125 C 264.109375 -175.097656 260.019531 -190.804688 251.84375 -205.203125 C 251.84375 -205.535156 251.757812 -205.78125 251.59375 -205.9375 C 251.4375 -206.101562 251.359375 -206.347656 251.359375 -206.671875 C 250.046875 -208.640625 248.734375 -210.601562 247.421875 -212.5625 C 246.117188 -214.53125 244.8125 -216.332031 243.5 -217.96875 C 234.664062 -229.425781 223.703125 -238.425781 210.609375 -244.96875 C 197.515625 -251.507812 183.113281 -254.78125 167.40625 -254.78125 C 151.695312 -254.78125 137.210938 -251.257812 123.953125 -244.21875 C 110.703125 -237.1875 99.660156 -227.945312 90.828125 -216.5 C 84.609375 -208.3125 79.78125 -199.304688 76.34375 -189.484375 C 72.90625 -179.671875 71.1875 -169.203125 71.1875 -158.078125 L 71.1875 -121.75 C 83.945312 -130.914062 98.015625 -138.035156 113.390625 -143.109375 C 128.773438 -148.179688 144.976562 -150.71875 162 -150.71875 Z M 264.109375 -150.71875 "/></g></g></g></svg>