<svg xmlns="http://www.w3.org/2000/svg" xmlns:xlink="http://www.w3.org/1999/xlink" width="500" zoomAndPan="magnify" viewBox="0 0 375 374.999991" height="500" preserveAspectRatio="xMidYMid meet" version="1.0"><defs><clipPath id="05e70d44e5"><path d="M 13.078125 23 L 361.828125 23 L 361.828125 352 L 13.078125 352 Z M 13.078125 23 " clip-rule="nonzero"/></clipPath></defs><g clip-path="url(#05e70d44e5)"><path fill="#000000" d="M 350.648438 23.128906 L 24.25 23.128906 L 13.078125 329.589844 C 13.078125 341.945312 23.085938 351.953125 35.425781 351.953125 L 339.476562 351.953125 C 351.828125 351.953125 361.832031 341.945312 361.832031 329.589844 Z M 269.179688 91.417969 C 269.035156 91.472656 268.875 91.496094 268.734375 91.550781 C 263.890625 137.59375 229.332031 173.414062 187.519531 173.414062 C 145.714844 173.414062 111.160156 137.609375 106.3125 91.578125 C 106.140625 91.511719 105.953125 91.484375 105.777344 91.417969 C 100.6875 89.335938 97.097656 84.339844 97.097656 78.5 C 97.097656 72.65625 100.683594 67.664062 105.777344 65.578125 C 107.402344 64.914062 109.179688 64.539062 111.046875 64.539062 C 113.332031 64.539062 115.492188 65.101562 117.398438 66.078125 C 121.910156 68.390625 124.992188 73.074219 124.992188 78.496094 C 124.992188 83.699219 122.117188 88.214844 117.890625 90.609375 C 122.214844 130.667969 151.777344 161.777344 187.511719 161.777344 C 223.226562 161.777344 252.78125 130.695312 257.128906 90.65625 C 252.847656 88.273438 249.941406 83.734375 249.941406 78.496094 C 249.941406 73.074219 253.03125 68.390625 257.542969 66.078125 C 259.449219 65.101562 261.605469 64.539062 263.894531 64.539062 C 265.757812 64.539062 267.535156 64.910156 269.164062 65.578125 C 274.25 67.660156 277.839844 72.652344 277.839844 78.5 C 277.855469 84.339844 274.261719 89.335938 269.179688 91.417969 Z M 269.179688 91.417969 " fill-opacity="1" fill-rule="nonzero"/></g></svg>