<svg xmlns="http://www.w3.org/2000/svg" xmlns:xlink="http://www.w3.org/1999/xlink" width="3400" zoomAndPan="magnify" viewBox="0 0 2550 749.999995" height="1000" preserveAspectRatio="xMidYMid meet" version="1.0"><defs><g/><clipPath id="3267149725"><path d="M 75 55.351562 L 697.667969 55.351562 L 697.667969 678.015625 L 75 678.015625 Z M 75 55.351562 " clip-rule="nonzero"/></clipPath><clipPath id="14a6e74995"><path d="M 188 186.414062 L 584.222656 186.414062 L 584.222656 546.558594 L 188 546.558594 Z M 188 186.414062 " clip-rule="nonzero"/></clipPath></defs><g clip-path="url(#3267149725)"><path fill="#1c8cd1" d="M 386.332031 55.351562 C 214.386719 55.351562 75 194.738281 75 366.683594 C 75 538.628906 214.386719 678.015625 386.332031 678.015625 C 558.277344 678.015625 697.667969 538.628906 697.667969 366.683594 C 697.667969 194.738281 558.277344 55.351562 386.332031 55.351562 " fill-opacity="1" fill-rule="nonzero"/></g><g clip-path="url(#14a6e74995)"><path fill="#ffffff" d="M 273.4375 186.449219 L 242.105469 186.589844 C 232.167969 186.625 224.152344 194.726562 224.207031 204.667969 C 224.242188 214.625 232.34375 222.640625 242.28125 222.605469 L 261.550781 222.535156 L 271.890625 247.363281 C 274.699219 254.0625 281.265625 258.445312 288.523438 258.445312 L 390.496094 258.480469 L 301.847656 399.371094 C 294.648438 410.894531 294.273438 425.453125 300.863281 437.320312 C 307.453125 449.1875 319.957031 456.558594 333.53125 456.558594 L 530.097656 456.558594 C 540.035156 456.558594 548.101562 448.492188 548.101562 438.550781 C 548.101562 428.613281 540.035156 420.542969 530.097656 420.542969 L 333.53125 420.542969 L 332.371094 418.433594 L 353.574219 384.53125 L 485.472656 384.53125 C 498.5625 384.53125 510.589844 377.429688 516.945312 365.996094 L 581.824219 249.195312 C 584.9375 243.613281 584.851562 236.835938 581.613281 231.328125 C 578.371094 225.835938 572.441406 222.464844 566.070312 222.464844 L 300.546875 222.464844 L 290.175781 197.527344 C 287.367188 190.792969 280.746094 186.414062 273.4375 186.449219 Z M 188.058594 294.457031 L 188.058594 330.472656 L 302.550781 330.472656 L 303.289062 329.382812 L 325.234375 294.457031 Z M 188.058594 366.488281 L 188.058594 402.5 L 257.191406 402.5 L 280.046875 366.488281 Z M 332.054688 474.566406 C 330.875 474.566406 329.699219 474.625 328.527344 474.738281 C 327.351562 474.855469 326.1875 475.027344 325.03125 475.257812 C 323.875 475.488281 322.730469 475.773438 321.601562 476.117188 C 320.472656 476.460938 319.363281 476.855469 318.273438 477.308594 C 317.1875 477.757812 316.121094 478.261719 315.082031 478.820312 C 314.039062 479.375 313.03125 479.980469 312.050781 480.636719 C 311.070312 481.289062 310.125 481.992188 309.210938 482.742188 C 308.300781 483.488281 307.425781 484.28125 306.59375 485.113281 C 305.757812 485.949219 304.96875 486.820312 304.21875 487.734375 C 303.472656 488.644531 302.769531 489.589844 302.117188 490.570312 C 301.460938 491.550781 300.855469 492.5625 300.300781 493.601562 C 299.742188 494.644531 299.238281 495.707031 298.789062 496.796875 C 298.335938 497.886719 297.941406 498.996094 297.597656 500.125 C 297.253906 501.253906 296.96875 502.398438 296.738281 503.554688 C 296.507812 504.710938 296.335938 505.875 296.21875 507.050781 C 296.105469 508.222656 296.046875 509.402344 296.046875 510.582031 C 296.046875 511.761719 296.105469 512.9375 296.21875 514.109375 C 296.335938 515.285156 296.507812 516.449219 296.738281 517.605469 C 296.96875 518.761719 297.253906 519.90625 297.597656 521.035156 C 297.941406 522.164062 298.335938 523.273438 298.789062 524.363281 C 299.238281 525.453125 299.742188 526.515625 300.300781 527.558594 C 300.855469 528.597656 301.460938 529.609375 302.117188 530.589844 C 302.769531 531.570312 303.472656 532.515625 304.21875 533.429688 C 304.96875 534.339844 305.757812 535.210938 306.59375 536.046875 C 307.425781 536.878906 308.300781 537.671875 309.210938 538.421875 C 310.125 539.167969 311.070312 539.871094 312.050781 540.527344 C 313.03125 541.179688 314.039062 541.785156 315.082031 542.34375 C 316.121094 542.898438 317.1875 543.402344 318.273438 543.855469 C 319.363281 544.304688 320.472656 544.703125 321.601562 545.042969 C 322.730469 545.386719 323.875 545.671875 325.03125 545.902344 C 326.1875 546.132812 327.351562 546.304688 328.527344 546.421875 C 329.699219 546.539062 330.875 546.59375 332.054688 546.59375 C 333.234375 546.59375 334.410156 546.539062 335.585938 546.421875 C 336.757812 546.304688 337.921875 546.132812 339.078125 545.902344 C 340.234375 545.671875 341.378906 545.386719 342.507812 545.042969 C 343.636719 544.703125 344.746094 544.304688 345.835938 543.855469 C 346.925781 543.402344 347.988281 542.898438 349.027344 542.34375 C 350.070312 541.785156 351.078125 541.179688 352.058594 540.527344 C 353.039062 539.871094 353.984375 539.167969 354.898438 538.421875 C 355.808594 537.671875 356.683594 536.878906 357.515625 536.046875 C 358.351562 535.210938 359.140625 534.339844 359.890625 533.429688 C 360.636719 532.515625 361.339844 531.570312 361.992188 530.589844 C 362.648438 529.609375 363.253906 528.597656 363.8125 527.558594 C 364.367188 526.515625 364.871094 525.453125 365.320312 524.363281 C 365.773438 523.273438 366.167969 522.164062 366.511719 521.035156 C 366.855469 519.90625 367.140625 518.761719 367.371094 517.605469 C 367.601562 516.449219 367.773438 515.285156 367.890625 514.109375 C 368.003906 512.9375 368.0625 511.761719 368.0625 510.582031 C 368.0625 509.402344 368.003906 508.222656 367.890625 507.050781 C 367.773438 505.875 367.601562 504.710938 367.371094 503.554688 C 367.140625 502.398438 366.855469 501.253906 366.511719 500.125 C 366.167969 498.996094 365.773438 497.886719 365.320312 496.796875 C 364.871094 495.707031 364.367188 494.644531 363.8125 493.601562 C 363.253906 492.5625 362.648438 491.550781 361.992188 490.570312 C 361.339844 489.589844 360.636719 488.644531 359.890625 487.734375 C 359.140625 486.820312 358.351562 485.949219 357.515625 485.113281 C 356.683594 484.28125 355.808594 483.488281 354.898438 482.742188 C 353.984375 481.992188 353.039062 481.289062 352.058594 480.636719 C 351.078125 479.980469 350.070312 479.375 349.027344 478.820312 C 347.988281 478.261719 346.925781 477.757812 345.835938 477.308594 C 344.746094 476.855469 343.636719 476.460938 342.507812 476.117188 C 341.378906 475.773438 340.234375 475.488281 339.078125 475.257812 C 337.921875 475.027344 336.757812 474.855469 335.585938 474.738281 C 334.410156 474.625 333.234375 474.566406 332.054688 474.566406 Z M 512.09375 474.566406 C 510.914062 474.566406 509.738281 474.625 508.5625 474.738281 C 507.390625 474.855469 506.226562 475.027344 505.070312 475.257812 C 503.910156 475.488281 502.769531 475.773438 501.640625 476.117188 C 500.511719 476.460938 499.402344 476.855469 498.3125 477.308594 C 497.222656 477.757812 496.160156 478.261719 495.121094 478.820312 C 494.078125 479.375 493.070312 479.980469 492.089844 480.636719 C 491.109375 481.289062 490.160156 481.992188 489.25 482.742188 C 488.339844 483.488281 487.464844 484.28125 486.632812 485.113281 C 485.796875 485.949219 485.007812 486.820312 484.257812 487.734375 C 483.511719 488.644531 482.808594 489.589844 482.152344 490.570312 C 481.5 491.550781 480.894531 492.5625 480.335938 493.601562 C 479.78125 494.644531 479.277344 495.707031 478.828125 496.796875 C 478.375 497.886719 477.976562 498.996094 477.636719 500.125 C 477.292969 501.253906 477.007812 502.398438 476.777344 503.554688 C 476.546875 504.710938 476.375 505.875 476.257812 507.050781 C 476.144531 508.222656 476.085938 509.402344 476.085938 510.582031 C 476.085938 511.761719 476.144531 512.9375 476.257812 514.109375 C 476.375 515.285156 476.546875 516.449219 476.777344 517.605469 C 477.007812 518.761719 477.292969 519.90625 477.636719 521.035156 C 477.976562 522.164062 478.375 523.273438 478.828125 524.363281 C 479.277344 525.453125 479.78125 526.515625 480.335938 527.558594 C 480.894531 528.597656 481.5 529.609375 482.152344 530.589844 C 482.808594 531.570312 483.511719 532.515625 484.257812 533.429688 C 485.007812 534.339844 485.796875 535.210938 486.632812 536.046875 C 487.464844 536.878906 488.339844 537.671875 489.25 538.421875 C 490.160156 539.167969 491.109375 539.871094 492.089844 540.527344 C 493.070312 541.179688 494.078125 541.785156 495.121094 542.34375 C 496.160156 542.898438 497.222656 543.402344 498.3125 543.855469 C 499.402344 544.304688 500.511719 544.703125 501.640625 545.042969 C 502.769531 545.386719 503.910156 545.671875 505.070312 545.902344 C 506.226562 546.132812 507.390625 546.304688 508.5625 546.421875 C 509.738281 546.539062 510.914062 546.59375 512.09375 546.59375 C 513.273438 546.59375 514.449219 546.539062 515.621094 546.421875 C 516.796875 546.304688 517.960938 546.132812 519.117188 545.902344 C 520.273438 545.671875 521.417969 545.386719 522.546875 545.042969 C 523.675781 544.703125 524.785156 544.304688 525.871094 543.855469 C 526.960938 543.402344 528.027344 542.898438 529.066406 542.34375 C 530.105469 541.785156 531.117188 541.179688 532.097656 540.527344 C 533.078125 539.871094 534.023438 539.167969 534.9375 538.421875 C 535.847656 537.671875 536.71875 536.878906 537.554688 536.046875 C 538.386719 535.210938 539.179688 534.339844 539.925781 533.429688 C 540.675781 532.515625 541.378906 531.570312 542.03125 530.589844 C 542.6875 529.609375 543.292969 528.597656 543.847656 527.558594 C 544.40625 526.515625 544.910156 525.453125 545.359375 524.363281 C 545.8125 523.273438 546.207031 522.164062 546.550781 521.035156 C 546.894531 519.90625 547.179688 518.761719 547.410156 517.605469 C 547.640625 516.449219 547.8125 515.285156 547.925781 514.109375 C 548.042969 512.9375 548.101562 511.761719 548.101562 510.582031 C 548.101562 509.402344 548.042969 508.222656 547.925781 507.050781 C 547.8125 505.875 547.640625 504.710938 547.410156 503.554688 C 547.179688 502.398438 546.894531 501.253906 546.550781 500.125 C 546.207031 498.996094 545.8125 497.886719 545.359375 496.796875 C 544.910156 495.707031 544.40625 494.644531 543.847656 493.601562 C 543.292969 492.5625 542.6875 491.550781 542.03125 490.570312 C 541.378906 489.589844 540.675781 488.644531 539.925781 487.734375 C 539.179688 486.820312 538.386719 485.949219 537.554688 485.113281 C 536.71875 484.28125 535.847656 483.488281 534.9375 482.742188 C 534.023438 481.992188 533.078125 481.289062 532.097656 480.636719 C 531.117188 479.980469 530.105469 479.375 529.066406 478.820312 C 528.027344 478.261719 526.960938 477.757812 525.871094 477.308594 C 524.785156 476.855469 523.675781 476.460938 522.546875 476.117188 C 521.417969 475.773438 520.273438 475.488281 519.117188 475.257812 C 517.960938 475.027344 516.796875 474.855469 515.621094 474.738281 C 514.449219 474.625 513.273438 474.566406 512.09375 474.566406 Z M 512.09375 474.566406 " fill-opacity="1" fill-rule="nonzero"/></g><g fill="#0a7fcf" fill-opacity="1"><g transform="translate(789.413875, 530.662188)"><g><path d="M 162.234375 -306.390625 C 183.484375 -306.390625 203.382812 -302.34375 221.9375 -294.25 C 240.5 -286.164062 256.675781 -275.222656 270.46875 -261.421875 C 284.269531 -247.628906 295.210938 -231.375 303.296875 -212.65625 C 311.390625 -193.945312 315.4375 -174.128906 315.4375 -153.203125 L 315.4375 -29.5 C 315.4375 -21.25 312.582031 -14.269531 306.875 -8.5625 C 301.164062 -2.851562 294.1875 0 285.9375 0 C 277.6875 0 270.628906 -2.851562 264.765625 -8.5625 C 258.898438 -14.269531 255.96875 -21.25 255.96875 -29.5 L 255.96875 -86.59375 L 162.234375 -86.59375 L 162.234375 -87.0625 C 161.285156 -86.75 159.539062 -86.59375 157 -86.59375 C 146.53125 -86.59375 136.535156 -85.003906 127.015625 -81.828125 C 117.503906 -78.660156 108.863281 -74.222656 101.09375 -68.515625 C 93.320312 -62.804688 86.582031 -55.984375 80.875 -48.046875 C 75.164062 -40.117188 70.882812 -31.398438 68.03125 -21.890625 C 67.71875 -21.566406 67.5625 -21.242188 67.5625 -20.921875 C 67.5625 -20.609375 67.398438 -20.296875 67.078125 -19.984375 C 65.179688 -13.953125 61.691406 -9.113281 56.609375 -5.46875 C 51.535156 -1.820312 45.671875 0 39.015625 0 C 30.765625 0 23.785156 -2.851562 18.078125 -8.5625 C 12.367188 -14.269531 9.515625 -21.25 9.515625 -29.5 L 9.515625 -153.203125 C 9.515625 -171.910156 12.6875 -189.507812 19.03125 -206 C 26.644531 -226.300781 38.0625 -244.382812 53.28125 -260.25 C 67.550781 -274.519531 83.960938 -285.773438 102.515625 -294.015625 C 121.078125 -302.265625 140.984375 -306.390625 162.234375 -306.390625 Z M 255.96875 -146.0625 L 255.96875 -153.203125 C 255.96875 -169.691406 252 -184.914062 244.0625 -198.875 C 244.0625 -199.1875 243.984375 -199.421875 243.828125 -199.578125 C 243.671875 -199.742188 243.59375 -199.984375 243.59375 -200.296875 C 242.320312 -202.203125 241.050781 -204.101562 239.78125 -206 C 238.519531 -207.90625 237.253906 -209.648438 235.984375 -211.234375 C 227.421875 -222.335938 216.796875 -231.0625 204.109375 -237.40625 C 191.421875 -243.75 177.460938 -246.921875 162.234375 -246.921875 C 147.015625 -246.921875 132.976562 -243.507812 120.125 -236.6875 C 107.28125 -229.875 96.578125 -220.914062 88.015625 -209.8125 C 81.992188 -201.882812 77.316406 -193.160156 73.984375 -183.640625 C 70.648438 -174.128906 68.984375 -163.984375 68.984375 -153.203125 L 68.984375 -117.984375 C 81.359375 -126.867188 95 -133.769531 109.90625 -138.6875 C 124.8125 -143.601562 140.507812 -146.0625 157 -146.0625 Z M 255.96875 -146.0625 "/></g></g></g><g fill="#0a7fcf" fill-opacity="1"><g transform="translate(1217.580192, 530.662188)"><g><path d="M 298.3125 -306.390625 C 306.550781 -306.390625 313.523438 -303.457031 319.234375 -297.59375 C 324.941406 -291.726562 327.796875 -284.671875 327.796875 -276.421875 L 327.796875 -152.71875 C 327.796875 -131.78125 323.75 -112.035156 315.65625 -93.484375 C 307.570312 -74.929688 296.628906 -58.753906 282.828125 -44.953125 C 269.035156 -31.160156 252.863281 -20.21875 234.3125 -12.125 C 215.757812 -4.039062 196.015625 0 175.078125 0 C 153.828125 0 133.925781 -4.039062 115.375 -12.125 C 96.820312 -20.21875 80.644531 -31.160156 66.84375 -44.953125 C 53.050781 -58.753906 42.109375 -74.929688 34.015625 -93.484375 C 25.929688 -112.035156 21.890625 -131.78125 21.890625 -152.71875 L 21.890625 -276.421875 C 21.890625 -284.671875 24.820312 -291.726562 30.6875 -297.59375 C 36.550781 -303.457031 43.609375 -306.390625 51.859375 -306.390625 C 60.109375 -306.390625 67.085938 -303.457031 72.796875 -297.59375 C 78.503906 -291.726562 81.359375 -284.671875 81.359375 -276.421875 L 81.359375 -152.71875 C 81.359375 -139.71875 83.816406 -127.585938 88.734375 -116.328125 C 93.648438 -105.066406 100.304688 -95.15625 108.703125 -86.59375 C 117.109375 -78.03125 127.019531 -71.289062 138.4375 -66.375 C 149.863281 -61.457031 162.078125 -59 175.078125 -59 C 187.765625 -59 199.816406 -61.457031 211.234375 -66.375 C 222.660156 -71.289062 232.65625 -78.03125 241.21875 -86.59375 C 249.78125 -95.15625 256.519531 -105.066406 261.4375 -116.328125 C 266.351562 -127.585938 268.8125 -139.71875 268.8125 -152.71875 L 268.328125 -152.71875 L 268.328125 -276.421875 C 268.328125 -284.671875 271.257812 -291.726562 277.125 -297.59375 C 283 -303.457031 290.0625 -306.390625 298.3125 -306.390625 Z M 298.3125 -306.390625 "/></g></g></g><g fill="#0a7fcf" fill-opacity="1"><g transform="translate(1646.222241, 530.662188)"><g><path d="M 321.140625 -150.34375 C 321.140625 -147.800781 321.0625 -145.34375 320.90625 -142.96875 C 320.75 -140.59375 320.507812 -138.132812 320.1875 -135.59375 C 318.601562 -122.59375 315.429688 -110.0625 310.671875 -98 C 305.910156 -85.945312 299.800781 -74.6875 292.34375 -64.21875 C 284.894531 -53.757812 276.175781 -44.328125 266.1875 -35.921875 C 256.195312 -27.515625 245.332031 -20.457031 233.59375 -14.75 C 209.175781 -3.332031 183.488281 1.425781 156.53125 -0.46875 C 129.570312 -2.375 104.832031 -10.941406 82.3125 -26.171875 C 60.738281 -40.753906 44.003906 -59.703125 32.109375 -83.015625 C 20.210938 -106.328125 14.582031 -130.988281 15.21875 -157 C 15.851562 -173.175781 18.867188 -188.875 24.265625 -204.09375 C 29.660156 -219.320312 37.269531 -233.441406 47.09375 -246.453125 C 59.46875 -262.617188 74.535156 -275.695312 92.296875 -285.6875 C 110.054688 -295.6875 128.929688 -301.953125 148.921875 -304.484375 C 168.898438 -307.023438 188.722656 -305.597656 208.390625 -300.203125 C 228.054688 -294.816406 245.816406 -285.9375 261.671875 -273.5625 L 262.140625 -273.5625 L 262.140625 -352.0625 C 262.140625 -360.3125 264.992188 -367.289062 270.703125 -373 C 276.421875 -378.707031 283.398438 -381.5625 291.640625 -381.5625 C 299.890625 -381.5625 306.867188 -378.707031 312.578125 -373 C 318.285156 -367.289062 321.140625 -360.3125 321.140625 -352.0625 Z M 238.828125 -90.875 C 249.929688 -103.875 257.148438 -118.695312 260.484375 -135.34375 C 263.816406 -152 262.625 -168.414062 256.90625 -184.59375 C 252.46875 -196.96875 245.726562 -207.910156 236.6875 -217.421875 C 227.65625 -226.941406 217.269531 -234.238281 205.53125 -239.3125 C 193.476562 -244.695312 180.867188 -247.390625 167.703125 -247.390625 C 154.546875 -247.390625 142.097656 -244.695312 130.359375 -239.3125 C 125.285156 -236.769531 120.445312 -234.070312 115.84375 -231.21875 C 111.25 -228.363281 106.890625 -225.035156 102.765625 -221.234375 C 94.515625 -212.984375 87.851562 -203.546875 82.78125 -192.921875 C 77.707031 -182.296875 74.851562 -170.957031 74.21875 -158.90625 C 73.582031 -148.4375 74.613281 -138.046875 77.3125 -127.734375 C 80.007812 -117.429688 84.53125 -108 90.875 -99.4375 C 97.21875 -90.238281 104.90625 -82.382812 113.9375 -75.875 C 122.976562 -69.375 132.734375 -64.695312 143.203125 -61.84375 C 153.359375 -59.3125 163.828125 -58.363281 174.609375 -59 C 185.390625 -59.632812 195.695312 -62.171875 205.53125 -66.609375 C 202.988281 -65.335938 200.445312 -64.144531 197.90625 -63.03125 C 195.375 -61.925781 192.679688 -60.898438 189.828125 -59.953125 C 195.859375 -62.171875 202.046875 -64.707031 208.390625 -67.5625 C 220.441406 -73.582031 230.585938 -81.351562 238.828125 -90.875 Z M 238.828125 -90.875 "/></g></g></g><g fill="#0a7fcf" fill-opacity="1"><g transform="translate(2096.272124, 530.662188)"><g><path d="M 162.234375 -306.390625 C 183.484375 -306.390625 203.382812 -302.34375 221.9375 -294.25 C 240.5 -286.164062 256.675781 -275.222656 270.46875 -261.421875 C 284.269531 -247.628906 295.210938 -231.375 303.296875 -212.65625 C 311.390625 -193.945312 315.4375 -174.128906 315.4375 -153.203125 L 315.4375 -29.5 C 315.4375 -21.25 312.582031 -14.269531 306.875 -8.5625 C 301.164062 -2.851562 294.1875 0 285.9375 0 C 277.6875 0 270.628906 -2.851562 264.765625 -8.5625 C 258.898438 -14.269531 255.96875 -21.25 255.96875 -29.5 L 255.96875 -86.59375 L 162.234375 -86.59375 L 162.234375 -87.0625 C 161.285156 -86.75 159.539062 -86.59375 157 -86.59375 C 146.53125 -86.59375 136.535156 -85.003906 127.015625 -81.828125 C 117.503906 -78.660156 108.863281 -74.222656 101.09375 -68.515625 C 93.320312 -62.804688 86.582031 -55.984375 80.875 -48.046875 C 75.164062 -40.117188 70.882812 -31.398438 68.03125 -21.890625 C 67.71875 -21.566406 67.5625 -21.242188 67.5625 -20.921875 C 67.5625 -20.609375 67.398438 -20.296875 67.078125 -19.984375 C 65.179688 -13.953125 61.691406 -9.113281 56.609375 -5.46875 C 51.535156 -1.820312 45.671875 0 39.015625 0 C 30.765625 0 23.785156 -2.851562 18.078125 -8.5625 C 12.367188 -14.269531 9.515625 -21.25 9.515625 -29.5 L 9.515625 -153.203125 C 9.515625 -171.910156 12.6875 -189.507812 19.03125 -206 C 26.644531 -226.300781 38.0625 -244.382812 53.28125 -260.25 C 67.550781 -274.519531 83.960938 -285.773438 102.515625 -294.015625 C 121.078125 -302.265625 140.984375 -306.390625 162.234375 -306.390625 Z M 255.96875 -146.0625 L 255.96875 -153.203125 C 255.96875 -169.691406 252 -184.914062 244.0625 -198.875 C 244.0625 -199.1875 243.984375 -199.421875 243.828125 -199.578125 C 243.671875 -199.742188 243.59375 -199.984375 243.59375 -200.296875 C 242.320312 -202.203125 241.050781 -204.101562 239.78125 -206 C 238.519531 -207.90625 237.253906 -209.648438 235.984375 -211.234375 C 227.421875 -222.335938 216.796875 -231.0625 204.109375 -237.40625 C 191.421875 -243.75 177.460938 -246.921875 162.234375 -246.921875 C 147.015625 -246.921875 132.976562 -243.507812 120.125 -236.6875 C 107.28125 -229.875 96.578125 -220.914062 88.015625 -209.8125 C 81.992188 -201.882812 77.316406 -193.160156 73.984375 -183.640625 C 70.648438 -174.128906 68.984375 -163.984375 68.984375 -153.203125 L 68.984375 -117.984375 C 81.359375 -126.867188 95 -133.769531 109.90625 -138.6875 C 124.8125 -143.601562 140.507812 -146.0625 157 -146.0625 Z M 255.96875 -146.0625 "/></g></g></g><g fill="#0a7fcf" fill-opacity="1"><g transform="translate(2524.404325, 530.662188)"><g/></g></g></svg>