<svg xmlns="http://www.w3.org/2000/svg" xmlns:xlink="http://www.w3.org/1999/xlink" width="3400" zoomAndPan="magnify" viewBox="0 0 2550 749.999995" height="1000" preserveAspectRatio="xMidYMid meet" version="1.0"><defs><g/></defs><path fill="#101010" d="M 630.414062 78.945312 L 188.082031 134.601562 C 200.636719 147.574219 209.421875 164.171875 211.796875 183.144531 L 219.046875 236.011719 L 566.527344 220.25 C 572.105469 219.828125 577.40625 222.339844 581.035156 226.523438 C 584.660156 230.847656 586.195312 236.429688 585.078125 241.867188 L 560.808594 366.710938 C 556.34375 390.007812 530.957031 406.746094 500.546875 406.746094 L 242.203125 406.746094 L 244.855469 425.714844 C 246.25 436.59375 256.015625 444.964844 267.453125 444.964844 L 518.960938 444.964844 C 528.863281 444.964844 537.09375 453.054688 537.09375 463.097656 C 537.09375 473.003906 528.863281 481.230469 518.960938 481.230469 L 267.453125 481.230469 C 238.019531 481.230469 212.769531 459.472656 208.867188 430.597656 L 175.804688 187.886719 C 172.597656 162.5 150.277344 143.390625 124.054688 143.390625 L 118.613281 143.390625 L 72.859375 149.109375 C 48.726562 152.175781 31.570312 174.078125 34.5 198.207031 L 82.902344 566.597656 C 86.53125 594.078125 109.40625 615.003906 137.164062 616.257812 L 570.710938 634.808594 C 601.679688 636.203125 628.324219 613.050781 631.390625 582.363281 L 676.585938 124 C 679.238281 97.636719 656.78125 75.597656 630.414062 78.945312 Z M 299.257812 567.574219 C 282.9375 567.574219 269.683594 554.324219 269.683594 537.863281 C 269.683594 521.542969 282.9375 508.152344 299.257812 508.152344 C 315.71875 508.152344 328.96875 521.542969 328.96875 537.863281 C 328.96875 554.324219 315.71875 567.574219 299.257812 567.574219 Z M 460.09375 567.574219 C 443.632812 567.574219 430.382812 554.324219 430.382812 537.863281 C 430.382812 521.542969 443.632812 508.152344 460.09375 508.152344 C 476.414062 508.152344 489.667969 521.542969 489.667969 537.863281 C 489.667969 554.324219 476.414062 567.574219 460.09375 567.574219 Z M 460.09375 567.574219 " fill-opacity="1" fill-rule="nonzero"/><path fill="#101010" d="M 500.546875 370.617188 C 515.332031 370.617188 524.539062 363.644531 525.238281 359.875 L 545.183594 257.632812 L 223.929688 272.136719 L 237.320312 370.617188 Z M 500.546875 370.617188 " fill-opacity="1" fill-rule="nonzero"/><g fill="#000000" fill-opacity="1"><g transform="translate(789.413755, 531.778602)"><g><path d="M 162.234375 -306.40625 C 183.492188 -306.40625 203.398438 -302.359375 221.953125 -294.265625 C 240.503906 -286.179688 256.675781 -275.238281 270.46875 -261.4375 C 284.269531 -247.644531 295.210938 -231.390625 303.296875 -212.671875 C 311.390625 -193.960938 315.4375 -174.140625 315.4375 -153.203125 L 315.4375 -29.5 C 315.4375 -21.25 312.582031 -14.269531 306.875 -8.5625 C 301.164062 -2.851562 294.1875 0 285.9375 0 C 277.695312 0 270.640625 -2.851562 264.765625 -8.5625 C 258.898438 -14.269531 255.96875 -21.25 255.96875 -29.5 L 255.96875 -86.59375 L 162.234375 -86.59375 L 162.234375 -87.0625 C 161.285156 -86.75 159.539062 -86.59375 157 -86.59375 C 146.539062 -86.59375 136.550781 -85.003906 127.03125 -81.828125 C 117.519531 -78.660156 108.878906 -74.222656 101.109375 -68.515625 C 93.335938 -62.804688 86.59375 -55.984375 80.875 -48.046875 C 75.164062 -40.117188 70.882812 -31.398438 68.03125 -21.890625 C 67.71875 -21.566406 67.5625 -21.242188 67.5625 -20.921875 C 67.5625 -20.609375 67.398438 -20.296875 67.078125 -19.984375 C 65.179688 -13.953125 61.691406 -9.113281 56.609375 -5.46875 C 51.535156 -1.820312 45.671875 0 39.015625 0 C 30.765625 0 23.785156 -2.851562 18.078125 -8.5625 C 12.367188 -14.269531 9.515625 -21.25 9.515625 -29.5 L 9.515625 -153.203125 C 9.515625 -171.910156 12.6875 -189.515625 19.03125 -206.015625 C 26.644531 -226.316406 38.0625 -244.394531 53.28125 -260.25 C 67.5625 -274.519531 83.976562 -285.78125 102.53125 -294.03125 C 121.082031 -302.28125 140.984375 -306.40625 162.234375 -306.40625 Z M 255.96875 -146.0625 L 255.96875 -153.203125 C 255.96875 -169.691406 252.003906 -184.914062 244.078125 -198.875 C 244.078125 -199.195312 243.992188 -199.4375 243.828125 -199.59375 C 243.671875 -199.75 243.59375 -199.984375 243.59375 -200.296875 C 242.332031 -202.203125 241.066406 -204.109375 239.796875 -206.015625 C 238.523438 -207.921875 237.253906 -209.664062 235.984375 -211.25 C 227.421875 -222.351562 216.796875 -231.078125 204.109375 -237.421875 C 191.421875 -243.765625 177.460938 -246.9375 162.234375 -246.9375 C 147.015625 -246.9375 132.976562 -243.523438 120.125 -236.703125 C 107.28125 -229.878906 96.578125 -220.914062 88.015625 -209.8125 C 81.992188 -201.882812 77.316406 -193.160156 73.984375 -183.640625 C 70.648438 -174.128906 68.984375 -163.984375 68.984375 -153.203125 L 68.984375 -118 C 81.359375 -126.875 95 -133.769531 109.90625 -138.6875 C 124.8125 -143.601562 140.507812 -146.0625 157 -146.0625 Z M 255.96875 -146.0625 "/></g></g></g><g fill="#000000" fill-opacity="1"><g transform="translate(1217.613154, 531.778602)"><g><path d="M 298.3125 -306.40625 C 306.5625 -306.40625 313.539062 -303.46875 319.25 -297.59375 C 324.957031 -291.726562 327.8125 -284.671875 327.8125 -276.421875 L 327.8125 -152.71875 C 327.8125 -131.789062 323.765625 -112.046875 315.671875 -93.484375 C 307.585938 -74.929688 296.644531 -58.753906 282.84375 -44.953125 C 269.050781 -31.160156 252.875 -20.21875 234.3125 -12.125 C 215.757812 -4.039062 196.019531 0 175.09375 0 C 153.832031 0 133.925781 -4.039062 115.375 -12.125 C 96.820312 -20.21875 80.644531 -31.160156 66.84375 -44.953125 C 53.050781 -58.753906 42.109375 -74.929688 34.015625 -93.484375 C 25.929688 -112.046875 21.890625 -131.789062 21.890625 -152.71875 L 21.890625 -276.421875 C 21.890625 -284.671875 24.820312 -291.726562 30.6875 -297.59375 C 36.550781 -303.46875 43.609375 -306.40625 51.859375 -306.40625 C 60.109375 -306.40625 67.085938 -303.46875 72.796875 -297.59375 C 78.503906 -291.726562 81.359375 -284.671875 81.359375 -276.421875 L 81.359375 -152.71875 C 81.359375 -139.71875 83.816406 -127.585938 88.734375 -116.328125 C 93.648438 -105.066406 100.3125 -95.15625 108.71875 -86.59375 C 117.125 -78.03125 127.035156 -71.289062 138.453125 -66.375 C 149.867188 -61.457031 162.082031 -59 175.09375 -59 C 187.78125 -59 199.832031 -61.457031 211.25 -66.375 C 222.664062 -71.289062 232.65625 -78.03125 241.21875 -86.59375 C 249.78125 -95.15625 256.519531 -105.066406 261.4375 -116.328125 C 266.351562 -127.585938 268.8125 -139.71875 268.8125 -152.71875 L 268.34375 -152.71875 L 268.34375 -276.421875 C 268.34375 -284.671875 271.273438 -291.726562 277.140625 -297.59375 C 283.003906 -303.46875 290.0625 -306.40625 298.3125 -306.40625 Z M 298.3125 -306.40625 "/></g></g></g><g fill="#000000" fill-opacity="1"><g transform="translate(1646.288353, 531.778602)"><g><path d="M 321.15625 -150.34375 C 321.15625 -147.8125 321.070312 -145.351562 320.90625 -142.96875 C 320.75 -140.59375 320.515625 -138.132812 320.203125 -135.59375 C 318.617188 -122.59375 315.445312 -110.066406 310.6875 -98.015625 C 305.925781 -85.960938 299.816406 -74.703125 292.359375 -64.234375 C 284.910156 -53.765625 276.191406 -44.328125 266.203125 -35.921875 C 256.210938 -27.515625 245.347656 -20.457031 233.609375 -14.75 C 209.179688 -3.332031 183.488281 1.425781 156.53125 -0.46875 C 129.570312 -2.375 104.832031 -10.941406 82.3125 -26.171875 C 60.738281 -40.753906 44.003906 -59.703125 32.109375 -83.015625 C 20.210938 -106.335938 14.582031 -131 15.21875 -157 C 15.851562 -173.175781 18.867188 -188.878906 24.265625 -204.109375 C 29.660156 -219.335938 37.273438 -233.453125 47.109375 -246.453125 C 59.472656 -262.628906 74.535156 -275.710938 92.296875 -285.703125 C 110.054688 -295.691406 128.929688 -301.957031 148.921875 -304.5 C 168.898438 -307.039062 188.722656 -305.613281 208.390625 -300.21875 C 228.054688 -294.820312 245.816406 -285.941406 261.671875 -273.578125 L 262.15625 -273.578125 L 262.15625 -352.078125 C 262.15625 -360.328125 265.007812 -367.304688 270.71875 -373.015625 C 276.425781 -378.722656 283.40625 -381.578125 291.65625 -381.578125 C 299.90625 -381.578125 306.882812 -378.722656 312.59375 -373.015625 C 318.300781 -367.304688 321.15625 -360.328125 321.15625 -352.078125 Z M 238.84375 -90.875 C 249.945312 -103.875 257.160156 -118.703125 260.484375 -135.359375 C 263.816406 -152.015625 262.628906 -168.429688 256.921875 -184.609375 C 252.484375 -196.972656 245.742188 -207.910156 236.703125 -217.421875 C 227.660156 -226.941406 217.269531 -234.238281 205.53125 -239.3125 C 193.476562 -244.707031 180.867188 -247.40625 167.703125 -247.40625 C 154.546875 -247.40625 142.097656 -244.707031 130.359375 -239.3125 C 125.285156 -236.78125 120.445312 -234.085938 115.84375 -231.234375 C 111.25 -228.378906 106.890625 -225.046875 102.765625 -221.234375 C 94.515625 -212.992188 87.851562 -203.554688 82.78125 -192.921875 C 77.707031 -182.296875 74.851562 -170.957031 74.21875 -158.90625 C 73.582031 -148.4375 74.613281 -138.046875 77.3125 -127.734375 C 80.007812 -117.429688 84.53125 -108 90.875 -99.4375 C 97.21875 -90.238281 104.910156 -82.390625 113.953125 -75.890625 C 122.992188 -69.390625 132.742188 -64.707031 143.203125 -61.84375 C 153.359375 -59.3125 163.828125 -58.363281 174.609375 -59 C 185.390625 -59.632812 195.695312 -62.171875 205.53125 -66.609375 C 203 -65.335938 200.460938 -64.144531 197.921875 -63.03125 C 195.390625 -61.925781 192.695312 -60.898438 189.84375 -59.953125 C 195.863281 -62.171875 202.046875 -64.707031 208.390625 -67.5625 C 220.441406 -73.582031 230.59375 -81.351562 238.84375 -90.875 Z M 238.84375 -90.875 "/></g></g></g><g fill="#000000" fill-opacity="1"><g transform="translate(2096.373478, 531.778602)"><g><path d="M 162.234375 -306.40625 C 183.492188 -306.40625 203.398438 -302.359375 221.953125 -294.265625 C 240.503906 -286.179688 256.675781 -275.238281 270.46875 -261.4375 C 284.269531 -247.644531 295.210938 -231.390625 303.296875 -212.671875 C 311.390625 -193.960938 315.4375 -174.140625 315.4375 -153.203125 L 315.4375 -29.5 C 315.4375 -21.25 312.582031 -14.269531 306.875 -8.5625 C 301.164062 -2.851562 294.1875 0 285.9375 0 C 277.695312 0 270.640625 -2.851562 264.765625 -8.5625 C 258.898438 -14.269531 255.96875 -21.25 255.96875 -29.5 L 255.96875 -86.59375 L 162.234375 -86.59375 L 162.234375 -87.0625 C 161.285156 -86.75 159.539062 -86.59375 157 -86.59375 C 146.539062 -86.59375 136.550781 -85.003906 127.03125 -81.828125 C 117.519531 -78.660156 108.878906 -74.222656 101.109375 -68.515625 C 93.335938 -62.804688 86.59375 -55.984375 80.875 -48.046875 C 75.164062 -40.117188 70.882812 -31.398438 68.03125 -21.890625 C 67.71875 -21.566406 67.5625 -21.242188 67.5625 -20.921875 C 67.5625 -20.609375 67.398438 -20.296875 67.078125 -19.984375 C 65.179688 -13.953125 61.691406 -9.113281 56.609375 -5.46875 C 51.535156 -1.820312 45.671875 0 39.015625 0 C 30.765625 0 23.785156 -2.851562 18.078125 -8.5625 C 12.367188 -14.269531 9.515625 -21.25 9.515625 -29.5 L 9.515625 -153.203125 C 9.515625 -171.910156 12.6875 -189.515625 19.03125 -206.015625 C 26.644531 -226.316406 38.0625 -244.394531 53.28125 -260.25 C 67.5625 -274.519531 83.976562 -285.78125 102.53125 -294.03125 C 121.082031 -302.28125 140.984375 -306.40625 162.234375 -306.40625 Z M 255.96875 -146.0625 L 255.96875 -153.203125 C 255.96875 -169.691406 252.003906 -184.914062 244.078125 -198.875 C 244.078125 -199.195312 243.992188 -199.4375 243.828125 -199.59375 C 243.671875 -199.75 243.59375 -199.984375 243.59375 -200.296875 C 242.332031 -202.203125 241.066406 -204.109375 239.796875 -206.015625 C 238.523438 -207.921875 237.253906 -209.664062 235.984375 -211.25 C 227.421875 -222.351562 216.796875 -231.078125 204.109375 -237.421875 C 191.421875 -243.765625 177.460938 -246.9375 162.234375 -246.9375 C 147.015625 -246.9375 132.976562 -243.523438 120.125 -236.703125 C 107.28125 -229.878906 96.578125 -220.914062 88.015625 -209.8125 C 81.992188 -201.882812 77.316406 -193.160156 73.984375 -183.640625 C 70.648438 -174.128906 68.984375 -163.984375 68.984375 -153.203125 L 68.984375 -118 C 81.359375 -126.875 95 -133.769531 109.90625 -138.6875 C 124.8125 -143.601562 140.507812 -146.0625 157 -146.0625 Z M 255.96875 -146.0625 "/></g></g></g><g fill="#000000" fill-opacity="1"><g transform="translate(2524.562145, 531.778602)"><g/></g></g></svg>